<svg width="100" height="100" viewBox="0 0 26.458 26.458" xmlns="http://www.w3.org/2000/svg"><path d="M12.946 5.234c-.07.013-.12.082-.123.15.007.1.114.175.154.218A7.495 7.495 0 008.928 6.95C8 6.42 6.598 6.233 5.86 6.143 4.27 5.951.202 11.773.08 12.827c-.091.788 2.549.631 2.874.054 1.48-2.626 3.057-5.033 3.375-4.956.012.002 1.9.668 1.9.918 0 .5-.75-.25-1-.25-.103.008-.169.154-.25.25-.96 1.28-1.25 2.622-1.25 4.25 0 1.516 1.25 3.499 2.5 4.499.57.455 1.518 1.042 2.438 1.578l.138.076.06.033s.548-.16.793-.156a2.466 2.466 0 00-.628.254c-.594.34-.588.915-.514 1.154.173.559 1.106.905 1.713.56-.254-.909.373-1.363 1-1.36.627-.003 1.254.451 1 1.36.607.345 1.54-.001 1.712-.56.074-.239.081-.815-.513-1.154l.165-.098.06-.033.138-.076c.92-.536 1.868-1.123 2.437-1.578 1.25-1 2.5-2.983 2.5-4.5 0-1.627-.29-2.97-1.25-4.25-.08-.095-.147-.241-.25-.25-.25 0-1 .75-1 .25 0-.25 1.89-.915 1.901-.917.318-.077 1.894 2.33 3.375 4.956.325.577 2.965.734 2.874-.054-.122-1.054-4.19-6.876-5.78-6.684-.738.09-2.14.278-3.068.807a7.496 7.496 0 00-4.05-1.348c.041-.043.148-.118.155-.218-.003-.068-.054-.137-.123-.15a.137.137 0 00-.076.008s-.077 0-.153.12c-.03.067-.057.07-.054.231.003-.16-.024-.164-.054-.23-.076-.12-.154-.121-.154-.121a.138.138 0 00-.075-.008zm-5.078 6.294l3.842 2.397a2.37 2.37 0 11-3.842-2.397zm10.722 0a2.37 2.37 0 11-3.842 2.397z" opacity=".999"/></svg>