<svg width="961" height="829" viewBox="0 0 254.26 219.34" xmlns="http://www.w3.org/2000/svg" xmlns:xlink="http://www.w3.org/1999/xlink"><defs><linearGradient id="a"><stop stop-color="#447821" offset="0"/><stop stop-color="#71c837" offset="1"/></linearGradient><linearGradient id="i" x1="268.31" x2="412.75" y1="251.45" y2="185.62" gradientUnits="userSpaceOnUse"><stop stop-color="#502d16" offset="0"/><stop stop-color="#502d16" stop-opacity="0" offset="1"/></linearGradient><linearGradient id="e" x1="346.57" x2="362.58" y1="214.57" y2="89.767" gradientUnits="userSpaceOnUse"><stop stop-color="#165016" offset="0"/><stop stop-color="#0a4" offset="1"/></linearGradient><linearGradient id="h" x1="345.02" x2="371.09" y1="227.91" y2="129.68" gradientUnits="userSpaceOnUse"><stop stop-color="#0b2817" offset="0"/><stop stop-color="#052" offset="1"/></linearGradient><linearGradient id="f" x1="396.49" x2="451.78" y1="201.43" y2="134.09" gradientUnits="userSpaceOnUse" xlink:href="#a"/><linearGradient id="g" x1="396.49" x2="451.78" y1="201.43" y2="134.09" gradientTransform="scale(-1.138 1.138) rotate(-6.311 -361.805 6026.661)" gradientUnits="userSpaceOnUse" xlink:href="#a"/><linearGradient id="d" x1="473.83" x2="483.39" y1="23.525" y2="14.552" gradientUnits="userSpaceOnUse"><stop stop-color="#cdbf9b" offset="0"/><stop stop-color="#cdbf9b" stop-opacity="0" offset="1"/></linearGradient><linearGradient id="b" x1="478.27" x2="482.2" y1="15.92" y2="14.552" gradientUnits="userSpaceOnUse"><stop stop-color="#00aad4" offset="0"/><stop stop-color="#00aad4" stop-opacity="0" offset="1"/></linearGradient><linearGradient id="c" x1="475.91" x2="482.52" y1="17.214" y2="12.996" gradientUnits="userSpaceOnUse"><stop stop-color="#08a" offset="0"/><stop stop-color="#08a" stop-opacity="0" offset="1"/></linearGradient></defs><path d="M31.146 8.3h158.75v198.44H31.146z" fill="#80b3ff"/><path d="m176.005 35.976 7.152 8.603-1.364 5.46-8.742-3.64c1.51-3.86 2.239-6.966 2.954-10.424zM165.866 0c-1.131.222-6.192 5.34-7.279 9.553 1.365 1.82 7.279 1.936 7.279 1.936s5.913-.117 7.278-1.936C172.057 5.34 166.997.222 165.866 0z" fill="#d33310"/><path d="M158.587 9.553c-4.077 12.022-5.5 22.831.455 37.756.91.91 5.914 1.364 6.824 1.356.91.008 5.913-.447 6.823-1.356 5.956-14.925 4.532-25.734.455-37.756-.925 1.133-4.036 1.736-7.278 1.936-3.242-.2-6.354-.803-7.279-1.936z" fill="#ececec"/><path d="m159.042 47.309 1.613 3.354c.336.297 2.336.77 5.21.812 2.875-.042 4.878-.515 5.214-.812l1.61-3.354c-1.352.697-4.201 1.315-6.823 1.356-2.622-.041-5.471-.659-6.824-1.356z" fill="#eea421"/><path d="m160.634 50.666-.51 1.308c1.567.82 3.837.97 5.716 1.005h.013c1.878-.035 4.149-.184 5.715-1.005l-.51-1.308c-1.288.428-3.916.792-5.212.812-1.297-.02-3.924-.384-5.212-.812z" fill="#2c89a0"/><path d="m159.998 52.567-.539 1.382c.522.678 3.655 1.455 6.375 1.417h.014c2.72.038 5.853-.74 6.375-1.417l-.538-1.382-.22-.543s-2.073.93-5.62.953c-3.608-.378-4.5-.527-5.595-.942z" fill="#2c89a0"/><g transform="translate(-659.764 -5.004) scale(1.7193)"><path d="m474.2 23.835-4.038 5.004.794 3.175 5.099-2.116c-.817-2.204-1.426-4.047-1.855-6.063zM479.69 21.167l.265 10.848c0 .265.529.265.529 0l.264-10.848c.006-.36-1.051-.345-1.058 0z" fill="#d33310"/><path d="M482.17 9.372c2.143 6.712 2.092 14.073.415 21.57.44-.091.872-.214 1.292-.375 2.508-7.85 2.028-14.951.214-21.802-.606.274-1.222.529-1.921.607z" fill="#fefaf4"/><circle cx="480.22" cy="14.552" r="2.778" fill="#ffd42a"/><circle cx="480.22" cy="14.552" fill="#1c1c24" r="2.381"/><circle cx="480.22" cy="14.552" r="2.381" fill="url(#b)"/></g><path d="M479.91 12.191c-1.046 1.192-.75 3.614.31 4.742-1.142.152-2.465-1.126-2.381-2.381-.036-1.084.851-2.24 2.071-2.361z" fill="url(#c)" transform="translate(-659.764 -5.004) scale(1.7193)"/><path d="M167.46 17.808c-.107-.058-.632-.077-.618.3.016.405.423 1.122.688 1.194.264.071.502-.073.52-.4.025-.46-.415-1-.59-1.094z" fill="#fff" fill-opacity=".764"/><path d="M165.878 0c-2.597.665-7.275 7.98-7.278 9.553 1.308 1.336 4.862 1.876 7.278 1.936-2.778-3.74-1.58-7.907 0-11.49z" fill="#971909"/><path d="m165.878 0 3.356 11.11c1.258-.18 2.43-.507 3.303-1.044-2.166-3.204-4.143-7.356-6.659-10.066z" fill="#ff7f2a"/><path d="M475.99 8.467c-3.969 10.752-2.147 15.867.265 21.96.671.347 2.136.754 3.684.788l-.216-8.885-1.853-6.301c-.417-.786-.828-2.063.361-3.414l.63-3.152c-1.587-.134-2.199-.575-2.871-.997z" fill="url(#d)" transform="translate(-659.764 -5.004) scale(1.7193)"/><path d="M176.005 35.976c2.586 4.427 6.126 8.798 5.788 14.062.534-2.26 1.153-4.613 1.364-5.459-2.166-3.203-4.636-5.893-7.152-8.603z" fill="#ff7f2a"/><path d="m174.664 41.668-1.609 4.732 5.749 2.393zM155.373 36.163c-.568 5.786-3.124 9.806-5.426 13.876l8.742-3.64c-1.199-3.16-2.469-6.584-3.316-10.236z" fill="#971909"/><path d="m154.239 37.581-5.647 7 .596 2.384zM165.999 30.936l.076 19.411c.116-.047.236-.08.25-.308l.454-18.65c-.009-.346-.416-.45-.78-.453z" fill="#ff7f2a"/><path d="M165.362 31.008c-.073.028-.384.103-.401.38l.455 18.65c-.004.166.134.283.293.322z" fill="#971909"/><g fill="#f3c952"><path d="m169.953 48.196-.596 2.884c.407-.07.419-.06.927-.195l1.89-3.335zM168.646 48.432l-.584 2.853c.39-.03.298-.054.71-.105l.644-2.867zM161.03 48.033l1.124 2.98-1.094-.256-.999-2.943zM163.454 48.514l.821 2.843c-.355-.027-.704-.098-1.051-.14l-.933-2.892z"/></g><path d="M163.007 52.785a8.864 8.864 0 0 1-2.856-.814l.51-1.308 1.908.446c-.348.434-.195.994.438 1.676z" fill="#006680"/><path d="M162.698 52.746c.25 1.872 1.71 1.893 2.708 2.62-1.428-.095-4.452-.118-5.921-1.415.264-.658.531-1.454.791-1.914.732.258.883.352 2.421.709z" fill="#006680"/><path d="M170.176 50.91c.303.84-.269 1.267-.71 1.756.414-.126 2.084-.585 2.126-.694l-.51-1.308z" fill="#5fbcd3"/><path d="M170.899 52.242c.146 1.073-.001 1.965-.596 2.581.7-.222 1.447-.385 1.943-.873l-.758-1.925z" fill="#5fbcd3"/><path d="M159.986 54.32c-.053 11.279-3.056 22.945-5.463 31.886C138.811 43.651 71.1 118.494 93.8 137.523l97.046 40.39 22.656.585h25.51c17.12-1.442 16.164-7.478 13.355-18.815 2.032-10.181-3.621-15.062-14.076-11.78.013-4.41-8.803-9.543-15.739-1.808 1.923-6.047-1.888-12.382-9.81-9.258 1.744-4.818 8.264-19.694-8.262-24.11 9.491-10.262-.748-32.43-26.65-26.157-2.556-13.982-4.754-19.62-6.306-32.162-5.123 1.24-6.784 1.343-11.538-.089z" fill="#e3dbdb"/><g fill="#c8b7b7"><path d="m165.866 55.37 5.63 36.673 6.34-5.468-6.306-32.162z"/><path d="m171.496 92.04 32.99 20.688c7.808-9.133 1.488-17.726-1.405-20.855-5.422-5.522-13.136-8.086-25.245-5.301z"/><path d="M171.496 92.04s9.088 14.743 11.027 23.857c10.269 8.28.42 30.901.608 30.823l29.616-9.88c4.165-10.587 5.11-19.986-8.26-24.111-9.807-7.36-2.046-21.56-32.99-20.688z"/><path d="m183.126 146.72 30.378 31.78h25.51c7.965-.723 14.064-2.505 14.732-7.374.889-1.339-.305-6.502-1.377-11.44 1.6-8.116-1.102-15.29-14.076-11.78-1.317-7.893-9.929-7.555-15.739-1.808 2.804-9.751-5.295-11.386-9.811-9.258z"/></g><path d="M254 189.12c-1.311-11.072-2.709-21.892-6.822-60.799l3.915 17.405c1.287-10.08 2.1-17.993 5.846-27.834-5.049 25.982 1.713 44.652.544 13.986l2.661 13.804c1.664-17.053 2.424 21.51 7.984-33.67 1.338 15.794 2.402 28.096 1.869 7.936 1.13 4.63 10.973 11.126 12.652 6.665-.062 5.07-1.07 7.158.02 11.989l2.594-25.234c1.77 10.362-.16 22.176 2.195 32.223l1.549-16.9c1.235 7.949 1.463-10.092 1.597-12.207 1.47 7.208 2.125 14.56 3.05 21.853 17.228 4.608 49.378 17.017 57.28-6.306l4.179-5.215-3.29 15.835c1.272 18.183 3.768-14.114 4.404-19.024 1.162 27.518 1.909 1.31 2.516-13.456 3.406 18.03 5.745 45.965 5.772 16.615 4.71 30.768 3.01 3.687 4.682-9.71 1.439 25.52 6.204 44.983 1.896 12.61 8.446 29.591 7.202 15.366 9.957-9.572l1.018 20.325c1.463 34.36 3.154-2.39 4.389-17.268 3.085 53.682 2.923 17.256 2.255-12.017l4.643 33.013 1.187 3.92.25-21.996 3.644 25.81 2.296-16.53c1.24 43.02 1.225-.27 3.145-16.593 2.049 3.698-.195 24.266 4.094 14.182l-.82 14.805.503 11.71 1.316-7.36.312 1.409c.912-9.28 2.75-17.501 5.299-26.35-1.75 13.484-2.003 26.999-2.208 40.564l5.345-34.505.206 16.407 2.937-3.584c-2.825 11.562-3.423 22.515-4.077 34.288l6.02-8.95c-1.276 17.03-10.27 33.724-10.054 48.644z" fill="url(#e)" transform="translate(-222.854 -55.2)"/><path d="M424.26 197.03c7.696-5.784 6.684-15.246-2.95-15.246-4.966.62-5.315-1.193-1.883-4.007 7.58-.626 19.67-8.587 9.217-13.802-2.662-2.195 1.78-3.318 3.856-5.99 4.076-5.243 2.66-12.348-.65-14.245-6.106-3.5-12.453 1.36-13.928 5.891l-1.826 5.61c-.66 1.267-1.488 1.959-2.902.65-3.958-11.31-12.794-6.042-13.11 3.453l.403 8.239c.114 2.92-2.625 3.537-3.697 1.317-.473-1.192-.15-2.6-2.563-3.966-13.504-4.519-13.262 9.716-14.49 15.076-1.938 5.851-3.589 11.744-6.071 17.153 24.203 16.12 40.479 14.78 50.594-.132z" fill="url(#f)" transform="translate(-222.854 -55.2)"/><path d="M251.86 166.09c-7.98-7.504-5.653-18.08 5.244-16.875 5.54 1.322 6.16-.684 2.63-4.296-8.494-1.656-21.174-12.174-8.698-16.763 3.286-2.15-1.597-3.976-3.612-7.257-3.954-6.44-1.464-14.3 2.518-16.032 7.344-3.195 13.915 3.096 15.016 8.406l1.363 6.574c.588 1.515 1.438 2.4 3.201 1.097 5.891-12.298 15.227-5.234 14.395 5.545l-1.485 9.269c-.494 3.288 2.526 4.329 4.016 1.952.685-1.289.495-2.923 3.395-4.165 15.839-3.422 13.785 12.648 14.503 18.864 1.46 6.86 2.59 13.732 4.722 20.16-29.392 15.207-47.633 11.654-57.208-6.478z" fill="url(#g)" transform="translate(-222.854 -55.2)"/><path d="M64.726 118.67 53.19 96.79l.98-15.806-.917.212-.964 14.309-13.333-22.076-.965.189 9.392 14.97-7.615-3.459-.24.858 8.253 3.503 15.054 27.32-19.848-10.622-.427.839 21.254 11.805z" fill="#05401d"/><path d="M229.09 213.36c-1.15-4.02-3.103-11.912.066-17.745-2.1.55-4.199.914-6.298-.47 1.764-4.468 5.149-5.763 9.131-8.048-3.183-.432-6.612-1.059-8.179-4.665 5.186-5.58 11.85-4.212 19.012-4.543-5.529-4.008-8.798-6.062-9.406-14.637 10.256-2.243 14.211 2.133 22.008 7.935-1.923-7.461.992-14.555 5.072-19.708 4.72 6.18 4.949 11.828 4.544 19.013.707-2.735.993-6.494 2.414-7.496.774 1.3 1.205 2.97 1.414 4.877.225-4.352 2.085-9.13 4.052-12.245 5.69 5.482 4.982 7.751 5.906 14.503 18.882 7.876 40.291 1.354 70.944-10.067 7.971-5.235 14.8-6.433 23.867-8.217-2.139 7.443-6.75 10.312-11.614 14.88 3.298.01 7.91-3.708 11.343-4.5 6.22-2.23 10.421-1.902 11.775-1.812-.41 1.97-6.85 11.687-6.85 11.687 4.11-1.062 10.768-1.599 13.33-.757-5.15 7.02-10.272 10.852-13.682 13.028 3.763 1.63 3.748 6.057 5.37 9.786 3.34-4.822 7.127-8.822 11.981-10.07.623 5.164-.034 10.03-1.149 14.852l2.351 2.5c3.805-4.33 5.918-9.911 13.051-10.657.904 4.285 1.548 8.515-.345 12.21 8.028-9.705 14.022-12.576 24.244-15.279-1.566 4.976-2.29 14.021-6.74 18.254 5.099-2.052 12.987.2 18.231.85-1.963 4.487-10.044 10.354-14.406 11.695l3.855 9.867z" fill="url(#h)" transform="translate(-222.854 -55.2)"/><g transform="translate(-222.854 -55.2)"><path d="m387.53 200.42 3.185-20.014.714.419-2.685 19.936zM392.31 200.38l12.19-17.997.672-13.901.78.273-.54 12.591 13.779-17.994.824.259-9.65 12.168 6.986-2.286.126.773-7.547 2.262-15.788 22.407 18.362-7.359.292.774-19.705 8.258z" fill="#05401d"/><circle cx="396.29" cy="156.15" r="1.323" fill="#cdde87"/><circle cx="385.57" cy="155.35" r=".529" fill="#89a02c"/><circle cx="377.48" cy="149.69" r=".928" fill="#17280b"/><circle cx="400.49" cy="163.2" r=".794" fill="#8dd35f"/><circle cx="394.56" cy="147.98" r=".529" fill="#445016"/><circle cx="433.51" cy="155.35" r="1.323" fill="#cdde87"/><circle cx="424.32" cy="176.27" r=".928" fill="#17280b"/><circle cx="414.22" cy="158.79" r=".529" fill="#8dd35f"/><circle cx="423.08" cy="143.84" r=".529" fill="#445016"/><circle cx="433.22" cy="191.76" r=".928" fill="#17280b"/><circle cx="447.59" cy="181.02" r="1.323" fill="#cdde87"/><circle cx="435.93" cy="175.76" r=".529" fill="#8dd35f"/><circle cx="427.81" cy="208.92" r=".794" fill="#8dd35f"/><circle cx="414.95" cy="196.85" r="1.323" fill="#cdde87"/><circle cx="395.81" cy="187.22" r=".794" fill="#8dd35f"/><circle cx="395.31" cy="173.9" r=".928" fill="#17280b"/><circle cx="419.44" cy="184.68" r=".529" fill="#8dd35f"/><circle cx="443.59" cy="199.13" r=".529" fill="#445016"/><circle cx="435.51" cy="220.03" r=".529" fill="#89a02c"/></g><g fill="#cdde87" transform="translate(-222.854 -55.2)"><circle cx="280.07" cy="148.44" r="1.323"/><circle cx="248.12" cy="120.85" r="1.323"/><circle cx="254.82" cy="172" r="1.323"/><circle cx="225.81" cy="173" r="1.323"/></g><g fill="#8dd35f" transform="translate(-222.854 -55.2)"><circle cx="266.73" cy="123.66" r=".794"/><circle cx="253.93" cy="142.41" r=".794"/><circle cx="268.66" cy="170.81" r=".794"/><circle cx="236.26" cy="172" r=".794"/><circle cx="235.5" cy="194.45" r=".794"/></g><g fill="#17280b" transform="translate(-222.854 -55.2)"><circle cx="278.43" cy="122.92" r=".928"/><circle cx="286.95" cy="144.12" r=".928"/><circle cx="255.24" cy="152.61" r=".928"/><circle cx="246.47" cy="136.87" r=".928"/><circle cx="224.78" cy="187.87" r=".928"/></g><g fill="#89a02c" transform="translate(-222.854 -55.2)"><circle cx="251.34" cy="129.33" r=".529"/><circle cx="288.46" cy="137.12" r=".529"/><circle cx="272.24" cy="130.45" r=".529"/><circle cx="259.07" cy="165.58" r=".529"/><circle cx="274" cy="162.13" r=".529"/><circle cx="242.18" cy="159.69" r=".529"/><circle cx="247.05" cy="183.21" r=".529"/></g><g fill="#445016" transform="translate(-222.854 -55.2)"><circle cx="259.34" cy="117.88" r=".529"/><circle cx="251.86" cy="164.34" r=".529"/><circle cx="231.75" cy="175.4" r=".529"/></g><path d="M31.146 132.65c-24.171 21.118-51.089 41.822 0 74.083 45.972 12.285 94.569 19.926 158.75 0 20.585-14.544 41.076-29.291 0-50.271-52.576-16.027-50.703-37.919-62.814-87.462-3.405-14.502-10.127-9.309-16.106-6.332-10.413 5.183-8.415-18.736-15.013-20.631-17.71-5.086-30.421 87.966-64.817 90.612z" fill="#c87635"/><path d="M318.82 97.242c-11.475 22.645-17.521 48.051-18.489 76.038-1.342 57.886 75.88 72.909 112.42 88.657-57.745 18.109-109.15 13.901-158.75 0-33.752-15.693-43.515-48.182 0-74.083 11.628-1.145 17.31-9.861 24.028-18.798 8.577-12.514 17.707-38.827 23.755-51.167 6.558-15.226 11.95-22.229 16.954-20.648z" fill="url(#i)" transform="translate(-222.854 -55.2)"/><g fill="#d9905c"><path d="m67.186 107.08-.564-7.93 4.748-3.484 2.293 5.992-4.09 5.83zM78.586 83.98c-.731-1.356-.79-3.058-.582-4.896.546-3.235 2.17-3.822 3.733-4.555 1.398 1.645 3.215 3.03 3.71 5.234-.159 2.44-1.159 3.69-1.996 5.173-2.685.563-3.525-.404-4.865-.956zM116.726 83.22l-3.383-3.608 3.1-3.27 4.016.98.43 4.303zM53.686 132.15l-3.383-3.608 3.1-3.27 4.016.98.43 4.303zM101.346 129.78l-2.12-4.576 1.91-5.57 5.303 3.61.342 4.55z"/></g><g fill="#28170b"><path d="M75.056 117.58c6.264.65 8.178 2.804 8.403 9.645.18 5.45-3.62 8.884-7.106 9.064-11.903.614-7.104-3.917-6.974-8.854.169-6.432.11-10.433 5.677-9.855zM103.266 83.63c-5.896.607-8.068 4.595-7.56 12.699.262 4.201 4.282 9.75 7.207 9.377 9.713-1.236 7.189-5.493 7.034-11.35-.2-7.63-3.012-11.104-6.681-10.726zM124.366 122.51c-7.47-.057-9.463 6.468-6.14 13.877 2.318 5.165 7.376 8.462 11.233 7.78 9.748-1.727 5.798-7.594 3.364-12.923-1.712-3.746-5.096-8.708-8.457-8.733z"/></g><g fill="#d9905c"><path d="M120.056 109.08c-.731-1.356-.79-3.058-.582-4.896.546-3.235 2.17-3.822 3.733-4.555 1.398 1.645 3.215 3.03 3.71 5.234-.159 2.44-1.159 3.69-1.996 5.173-2.685.563-3.525-.404-4.865-.956zM86.076 159.28l-.564-7.93 4.748-3.484 2.293 5.992-4.09 5.83zM145.426 157.96l-3.383-3.608 3.1-3.27 4.016.98.43 4.303zM136.786 193.25l-2.12-4.576 1.91-5.57 5.303 3.61.342 4.55z"/></g><g fill="#6c361d"><path d="M131.716 143.62c2.582-2.735 2.765-13.668-10.833-20.538 3.136-1.459 5.277-.448 6.584.704 6.626 5.33 12.857 17.853 4.249 19.834zM106.756 104.87c.897-.395 1.806-.69 2.631-1.673 2.348-2.333.582-13.88-.84-16.062-1.238-2.579-3.015-3.698-5.28-3.5 5.7 4.537 5.44 15.208 3.489 21.235zM74.526 117.54c-4.536 8.094-3.543 12.065-1.077 18.793-2.858.18-3.526-.449-4.584-1.285-1.448-2.189.18-4.94.51-7.611-.045-6.381.796-8.06 1.723-8.945.8-1.074 3.306-1.098 3.428-.952z"/></g><g><path d="M36.712 153.17c-.47.03-.974.081-1.215.535-.248.578-.146.986-.09 1.598-.32-.12-.542-.016-.714.197.294 1.978 1.05 1.51 2.037 2.239l1.377 6.403-1.66 1.79a99.612 99.612 0 0 0-4.673.132.715.715 0 0 0-.03-.06c-1.06-.128-2.345-2.578-1.949-2.684 1.998-.186 5.9-.523 6.836-1.813.06-.593-.567-.614-1.532-.344l-5.783 1.978c-.393.202-.263 1.099.368 3.052-.7.052-1.4.109-2.1.176-.487-.759-.943-2.133-.726-2.677 1.115-1.473 1.58-3.358 1.85-4.836.19-.958-.826-1.374-1.23-.482l-1.026 5.172c-.22.394-.379 1.377-.182 2.962-.711.078-1.422.163-2.131.26l-1.352-5.248c.888-.664 1.662-1.044.815-2.502-.166-.174-.367-.25-.64-.123.007-.54-.142-.657-.4-1.146-.233-.354-.661-.468-1.103-.383-.5.097-1.017.45-1.29 1-.126.849-.093.956-.031 1.433.202 1.074.83 1.556 1.772 1.598l.81 5.576a82.174 82.174 0 0 0-7.758 1.557l.788-.886-1.73-4.384c.094.239.479-.625.41-1.025.01-.326.025-.4-.116-.963a1.004 1.004 0 0 0-.614-.516 1.903 1.903 0 0 0-.321-.072c-.28.023-.579.059-.717.331-.142.346-.077.588-.037.95-.192-.067-.322-.003-.422.125.195 1.174.64.888 1.234 1.31l.885 3.794-1.78 1.989c-.833.239-1.661.49-2.486.759l-1.564-5.072c.686-.566 1.292-.899.558-2.035-.139-.134-.302-.187-.516-.074-.015-.433-.14-.521-.365-.903-.2-.275-.547-.35-.897-.266a1.5 1.5 0 0 0-.996.85c-.07.684-.04.769.029 1.15.203.852.724 1.214 1.48 1.213l1.073 5.538a68.88 68.88 0 0 0-6.73 2.717c.4 6.385 4.102 16.5 14.862 25.154 3.805 3.06 8.318 6.139 14.152 8.521l2.824-1.113 1.447 2.572c47.095 10.801 85.18 15.85 135.336 3.795h.002v-.002c1.126-.271 2.25-.54 3.39-.828a24.19 24.19 0 0 0-2.095-2.174l2.274-5.272c.653.144 1.17-.07 1.507-.767.13-.315.173-.383.242-.987a1.326 1.326 0 0 0-.698-.921c-.286-.14-.6-.14-.824.059-.267.287-.391.34-.486.71-.163-.137-.314-.122-.46-.034-.848.842-.388 1.244.097 1.862l-2.569 4.538a36.147 36.147 0 0 0-3.768-2.771l1.876-2.633-3.257-6.192c.177.337.608-.998.442-1.578-.037-.483-.027-.594-.326-1.402a1.489 1.489 0 0 0-.988-.664 2.82 2.82 0 0 0-.485-.054c-.409.078-.845.179-1.005.602-.154.534-.02.88.097 1.41-.294-.07-.476.046-.603.251.476 1.7 1.086 1.207 2.031 1.736l1.915 5.455-1.435 2c-3.813-2.23-8.355-4.203-13.386-5.973l-2.006-4.678 3.449-5.568c1.174-.354 1.73.34 2.67-1.424-.09-.259-.263-.431-.605-.426.258-.557.491-.907.451-1.535-.074-.508-.531-.726-.964-.912a3.209 3.209 0 0 0-.551-.059 1.689 1.689 0 0 0-1.254.493c-.529.821-.544.948-.703 1.472-.325.602-.175 2.183.103 1.854l-5.113 6.056 1.588 3.735c-18.289-5.941-42.176-9.468-62.216-12.682l4.927-1.941c-2.247-2.535-6.29-5.225-11.59-7.694l.057-.042-1.28-7.822c.07.425 1.01-.856 1.04-1.539.133-.531.185-.648.153-1.623a1.688 1.688 0 0 0-.823-1.067 3.206 3.206 0 0 0-.503-.233c-.468-.062-.972-.11-1.296.288-.357.518-.337.939-.4 1.55-.292-.18-.529-.122-.74.053-.097 1.998.736 1.687 1.562 2.594l.102 6.549-.298.215a89.589 89.589 0 0 0-7.042-2.626l-.794-1.85 2.584-4.173c.88-.266 1.296.255 2.002-1.067-.068-.194-.197-.323-.454-.319.194-.417.368-.68.338-1.15-.056-.38-.399-.544-.723-.684a2.393 2.393 0 0 0-.412-.043 1.269 1.269 0 0 0-.94.369c-.396.615-.408.71-.526 1.103-.244.45-.132 1.636.077 1.39l-3.832 4.537.514 1.207c-.68-.205-1.366-.408-2.065-.604-.192-.447-.339-.984-.351-1.385 1.126-.576 2.225-1.48 2.846-2.117.588-.692-.55-.984-1.022-.394l-1.636 1.502c.25-1.331.243-2.544.147-2.944-.213-1.47-1.068-1.148-.98-.435l.375 3.799-.905.83a1.477 1.477 0 0 0-.183.682c-.445-.117-.892-.232-1.344-.345l1.048-6.073c1.231-.275 2.211-.307 2.013-2.216-.09-.258-.262-.431-.605-.426.259-.557.159-.748.12-1.376-.077-.477-.468-.795-.966-.912a2.129 2.129 0 0 0-1.804.435c-.528.82-.544.947-.702 1.471-.292 1.21.134 2.002 1.092 2.487l-1.782 6.228a113.048 113.048 0 0 0-4.884-1.026l-1.045-2.66 2.64-5.198c.886-.455 1.297.065 2.02-1.563-.066-.208-.194-.333-.452-.284.2-.509.378-.838.353-1.369-.05-.424-.393-.55-.717-.653a2.057 2.057 0 0 0-.413.022c-.38.061-.672.246-.947.583-.405.77-.417.879-.541 1.347-.25.555-.15 1.886.062 1.57l-3.897 5.83.776 1.991c-.35-.058-.703-.115-1.056-.171-.362-.578-.664-1.344-.563-1.713.76-1.283 1.475-2.609 1.904-3.701.265-1.099-.737-1.107-1.031-.276l-1.212 3.897c-.099.234-.16.842-.09 1.639-.31-.047-.622-.09-.933-.133l-1.17-5.25c.66-.46 1.23-.718.65-1.795-.115-.13-.258-.19-.459-.104.017-.391-.088-.48-.264-.84-.16-.263-.467-.356-.79-.305a1.356 1.356 0 0 0-.958.694c-.112.612-.091.69-.058 1.038.121.783.565 1.148 1.247 1.201l.58 5.196c-2.247-.291-4.535-.518-6.85-.673-.13-.292-.187-.584-.13-.808 1.38-.736 2.766-2.279 3.443-3.25.498-.831-.75-.939-1.143-.236l-2.675 3.42c-.076.214-.116.446-.062.837a108.25 108.25 0 0 0-1.182-.066c.033-.232.031-.412.005-.536l.444-4.053c-.091-.752-.937-.681-1.02.07-.144 1.153-.238 2.65.243 3.996.01.135-.041.31-.132.5-.739-.034-1.48-.064-2.223-.083l.942-1.02-2.781-7.423c.15.404.824-1.036.72-1.712.027-.547.054-.67-.167-1.622a1.689 1.689 0 0 0-1.016-.885 3.212 3.212 0 0 0-.538-.13zm29.223 15.716a8.544 8.544 0 0 0-.014.962l-.412-.113c-.058-.263-.058-.512.022-.694.134-.045.269-.097.404-.155z" fill="#131424"/><path d="M32.915 163.663c-.54 0-1.123.18-1.597.57-.62.965-.64 1.114-.826 1.73-.342 1.42.158 2.351 1.284 2.92l-2.389 8.347c-3.143-.709-7.358-.398-10.46 1.055a10 10 0 0 0-1.761 1.054c-1.235.135-2.458.442-3.503.932-1.687.068-3.32.287-4.794.786l-.812-5.428c.642-.384 1.187-.584.72-1.622-.099-.128-.228-.193-.42-.127.042-.361-.05-.45-.189-.796-.131-.254-.41-.36-.712-.334-.343.03-.715.23-.935.58-.145.561-.13.635-.122.96.061.734.45 1.101 1.078 1.196l.247 6.034a8.28 8.28 0 0 0-2.726 2.047c1.022 2.048 1.786 4.062 3.489 5.767.697.962 1.541 1.969 2.374 2.933.577.945 2.263 2.388 2.263 2.388.025.023.051.047.08.07 3.948 3.617 8.56 8.56 17.94 12.01 11.229 4.13 27.148 7.402 46.475 9.824 1.217.251 2.47.402 3.743.452 1.945.228 3.91.45 5.917.661 23.885 3.004 52.596.401 66.566-2.226l-4.548-1.897 8.44-9.934 3.428-16.792c2.291.31 3.4-1.105 4.36-3.607 1.044-2.749.117-6.33-3.277-6.68-1.788.252-2.923 2.068-3.14 3.263-.6-.428-1.118-.332-1.594.015-1.463 3.243-.36 4.45.867 6.391l-5.17 14.423-1.285 1.25c-.04-3.835-1.794-7.84-4.966-10.091-3.086-.782-2.425-9.785-10.03-11.683-4.718-1.177-11.226-.75-15.98 1.477-4.085 1.913-6.748 5.304-7.842 9.4-1.906.113-3.377.225-4.712.41l-1.43-9.903c.1.687 1.655-1.348 1.723-2.448.003-.285-.112-.769-.178-1.063-.114-1.174-.506-1.717-.97-2.001a6.117 6.117 0 0 0-1.035-.532c-.751-.114-1.563-.207-2.098.424-.164.23-.26.433-.314.61-1.904 2.626-.054 3.53 1.25 5.016l-.013 3.565c-.818-1.845-2.512-2.585-4.138-2.657-6.253-.279-8.939.055-13.363 1.267-1.02.279-1.968.665-2.838 1.146-2.81.155-4.834.281-6.608.497l5.478-8.844c1.892-.571 3.026-.806 3.503-2.51.156-.804.287-1.487.27-1.768-.12-.819-.858-1.17-1.556-1.47a6.119 6.119 0 0 0-1.16-.097c-.544-.005-1.164.248-1.882 1.184-.212.215-.564.565-.714.808-.524.969-.282 3.518.166 2.988l-7.451 8.825c-.566-2.68-1.193-5.23-2.698-5.953-5.201-2.495-10.9-.168-15.375.842-2.063.466-3.603 1.355-4.705 2.58l.994-5.76c1.127-.44 1.943-.732 2.013-2.216-.09-.258-.263-.43-.605-.425.258-.557.158-.748.119-1.376-.077-.477-.467-.795-.965-.913-1.354-.251-2.157.801-2.507 1.907.099 1.768.135 2.002 1.092 2.486l-3.325 11.621c-.706-1.154-1.733-2.192-3.465-2.624-.39-.097-.802-.176-1.228-.237l3.002-4.846c1.174-.355 1.73.34 2.67-1.425-.09-.258-.263-.43-.605-.425.258-.557.491-.907.451-1.535-.074-.508-.531-.726-.964-.912a3.21 3.21 0 0 0-.551-.059 1.689 1.689 0 0 0-1.254.493c-.529.821-.544.947-.703 1.472-.325.601-.175 2.183.103 1.854l-4.418 5.233c-.65.003-1.312.043-1.97.123l2.695-11.124c-.159.656 1.98-.618 2.44-1.587.517-.685.662-.822 1.212-2.25.094-.775-.063-1.408-.538-2.043a5.025 5.025 0 0 0-.584-.643c-.637-.375-1.336-.752-2.047-.376-.831.532-1.059 1.15-1.524 1.993-.31-.438-.688-.497-1.099-.372-1.36 2.824.033 2.884.671 4.697l-3.848 9.518-2.807.648c-.664-1.617-1.45-3.664-3.393-4.824l1.459-8.456c1.446-.322 2.598-.36 2.365-2.603-.106-.303-.309-.506-.711-.5.303-.654.186-.878.14-1.616-.09-.56-.55-.934-1.134-1.072a2.287 2.287 0 0 0-.522-.06z" fill="#080810"/><path d="M84.996 184.82c13.488-3.357 17.478-1.936 20.473 9.64-1.132-2.27 2.664-10.146-2.7-11.758-4.111-1.353-13.495-.392-17.773 2.118z" fill="#373e48"/><path d="M104.066 193.24s7.002-.67 8.623-1.078l.422-1.18c-3.595-.06-8.311.335-9.045 2.258z" fill="#373e48"/></g><g fill="#080810"><path d="m104.086 171.47-8.986 5.712c-.703.868-1.133 2.013-1.13 6.43.006 1.334.736 1.7 1.918 1.666.881-.165 1.98-.71 1.757-1.739-1.759-.835-2.682-4.485-1.73-5.896 3.79-.571 8.26-3 10.622-4.691 1.832-1.513-.965-2.784-2.451-1.482zM94.386 169.69l-5.082 7.68c-.591.73-1.602 3.69-1.6 7.405.006 1.121.62 1.43 1.614 1.4.74-.138 1.789-1.704 1.601-2.569-.874-1.088-1.613-4.735-.93-5.848 2.457-2.301 4.84-4.724 6.459-6.821 1.265-2.214-.9-2.862-2.062-1.247zM118.276 181.69l-7.799 4.958c-.61.753-.984 1.747-.982 5.58.006 1.158.64 1.476 1.666 1.446.765-.143 1.718-.617 1.524-1.509-1.526-.724-2.327-3.892-1.501-5.117 3.29-.496 7.17-2.604 9.22-4.072 1.59-1.312-.838-2.416-2.128-1.286z"/></g><g><path d="M116.806 184.39c12.312-4.915 20.291-2.737 29.016 6.863-1.12-2.125-2.05-7.697-6.725-10.315-3.767-2.077-11.243-1.611-14.189-.68-1.908.706-6.213 1.547-8.102 4.132z" fill="#373e48"/><path d="m142.636 171.97-12.559 2.26c-.944.317-.887 2.491-.025 7.472.267 1.503 1.162 1.774 2.488 1.506.962-.358 2.094-1.187 1.643-2.303-2.145-.6-4.024-6.06-3.173-6.154 4.182.245 12.343.78 14.679-1.586.31-1.206-.976-1.448-3.053-1.195zM123.716 159.37l-2.575 12.982c-.632 1.13-1.06 4.194-.189 9.236.27 1.52 1.177 1.795 2.519 1.524.973-.363 1.778-1.545 1.322-2.674-1.443-1.273-3.299-6.05-2.632-7.72 2.798-3.698 3.967-8.429 4.645-12.139.475-2.406-2.074-3.449-3.09-1.21z" fill="#080810"/><path d="M53.766 180.62c8.526-1.214 13.978-3.989 19.036 6.903-1.132-2.27 5.345-6.771-1.837-9.592-4.11-1.354-12.921.18-17.199 2.689z" fill="#373e48"/><path d="m73.756 167.86-9.235 5.3c-.742.834-1.224 1.96-1.42 6.372-.054 1.333.659 1.732 1.84 1.75.888-.125 2.01-.62 1.834-1.657-1.719-.913-2.476-4.601-1.462-5.968 3.813-.4 8.388-2.624 10.825-4.206 1.898-1.428-.838-2.825-2.382-1.591zM59.356 164.44l-.631 8.66c-.625.702-1.192 3.418-1.358 7.13-.045 1.12-.022 1.65.972 1.666.747-.105 1.865-1.622 1.717-2.494-.825-1.127-1.398-4.804-.665-5.884 1.435-3.289 2.037-6.679 1.968-7.74.093-3.334-1.925-2.948-2.003-1.338z" fill="#080810"/></g><g fill="#373e48"><path d="M125.466 158.14c.778 5.782-1.546 10.04-3.305 14.576 1.536-2.271 4.766-5.216 4.701-12.832-.058-.985-.62-1.652-1.396-1.744z"/><path d="M122.166 172.71c-1.12 1.655 1.462 9.503 1.31 10.394 1.017-.256 1.723-1.78 1.404-2.421-.095-.844-1.649-.534-2.714-7.973zM145.566 172.34c-1.86.394-2.212 1.414-4.336 2.414 2.772-.334 3.696-1.026 3.696-1.026.764-.624 1.02-.705.64-1.388zM130.896 174.8c-1.24 1.59 2.348 7.233 1.832 8.325 1.057-.201 1.827-1.321 1.45-2.225-1.894-2.535-2.013-1.176-3.282-6.1zM144.226 189.57c1.124 3.34 7.334 10.294 5.847 18.466.358-.705.333-.14 1.25-2.707 2.173-6.537-1.951-13.023-7.097-15.76zM86.946 171.17c-3.257 5.11-6.915 9.064-10.372 13.595l1.81.55 5.478-8.843c1.17-.279 2.565-.52 3.241-1.832 1.165-2.485.422-3.017-.157-3.47z"/></g><g><path d="m89.176 174.21-8.986 5.712c-.703.868-1.133 2.013-1.13 6.43.006 1.334.736 1.7 1.918 1.666.881-.165 1.98-.71 1.757-1.739-1.759-.835-2.682-4.485-1.73-5.896 3.79-.571 8.26-3 10.622-4.691 1.832-1.513-.965-2.784-2.451-1.482z" fill="#080810"/><path d="M91.096 173.71c.079 1.264-3.06 3.562-4.567 4.9 1.788-.387 5.791-3.182 5.686-3.74.16-.29-.373-1.141-1.12-1.16z" fill="#373e48"/><path d="m79.486 172.44-5.082 7.68c-.591.73-1.602 3.69-1.6 7.405.006 1.121.62 1.43 1.614 1.4.74-.138 1.789-1.704 1.601-2.569-.874-1.088-1.613-4.735-.93-5.848 2.457-2.301 4.84-4.724 6.459-6.821 1.265-2.214-.9-2.862-2.062-1.247z" fill="#080810"/><path d="M105.836 175.37c1.193 2.668 2.015 3.626.731 6.263-.22 4.327 1.659 6.5-.024 10.06l1.86-.298-1.392-9.64c0-.053-.01-.116-.012-.206.041.407 2.551-1.385 1.379-4.356-.432-1.826-2.093-1.806-2.542-1.823z" fill="#373e48"/><path d="m109.866 180.15-4.41 6.666c-.514.634-1.392 3.202-1.39 6.426.005.974.538 1.241 1.401 1.216.643-.12 1.553-1.48 1.39-2.23-.759-.945-1.4-4.11-.808-5.075 2.133-1.998 4.201-4.101 5.606-5.921 1.098-1.922-.781-2.484-1.789-1.082z" fill="#080810"/><path d="M33.866 185.99c9.363-1.385 11.584.74 15.06 2.07.622-.938-.606-1.972-.606-1.972-2.618-2.27-5.338-2.084-7.654-1.811-.52.055-3.037-.278-6.8 1.713z" fill="#373e48"/><path d="M48.936 175.22c-1.091 3.531-3.588 6.027-5.553 8.915l1 .229 3.001-4.847c.475-.019.907.023 1.495-.152.136-.121.592-.082 1.176-1.272-.052-.27-.318-.438-.606-.426 0 0 .5-.644.452-1.535-.142-.66-.592-.707-.965-.912z" fill="#373e48"/><path d="m49.076 179.65-7.639 1.374c-.574.193-.54 1.516-.015 4.546.162.914.707 1.079 1.513.915.585-.218 1.274-.722 1-1.4-1.305-.365-2.448-3.686-1.93-3.744 2.544.15 7.508.475 8.928-.964.189-.734-.594-.88-1.857-.727z" fill="#080810"/><path d="M41.966 181.33c-.29 3.436 1.009 4.273.97 5.156 1.017-.256 1.32-.76 1-1.4-1.113-1.086-1.56-1.794-1.97-3.756z" fill="#373e48"/><path d="m37.576 171.98-1.566 7.896c-.385.687-.645 2.551-.115 5.618.165.925.715 1.092 1.532.927.592-.22 1.082-.94.804-1.627-.877-.774-2.006-3.68-1.601-4.695 1.702-2.25 2.413-5.127 2.825-7.383.29-1.464-1.261-2.098-1.88-.736z" fill="#080810"/><path d="m33.446 163.73-2.945 13.904.826.343 1.459-8.456c.864-.189 1.698-.272 2.077-.846.409-.707.362-.923.288-1.757-.089-.216-.204-.49-.711-.5.15-.364.3-.512.14-1.616-.167-.83-.646-.883-1.134-1.072z" fill="#373e48"/><path d="M17.916 178.83c6.152-.597 8.617.319 11.322 1.325 3.37 1.253 3.679 3.122 4.186 4.463 0 0 1.05-1.52 1.292-1.824-.767-2.056-2.009-4.381-3.91-5.04-2.035-1.185-9.517-1.593-12.89 1.076z" fill="#373e48"/><path d="m34.316 172.27-9.901 1.781c-.745.25-.7 1.965-.02 5.892.21 1.185.916 1.399 1.961 1.187.759-.282 1.652-.936 1.296-1.815-1.692-.473-3.173-4.778-2.502-4.852 3.297.192 9.732.615 11.573-1.25.245-.952-.77-1.142-2.407-.943zM18.816 165.71l-1.443 6.853c-.498.89-.836 3.307-.149 7.282.214 1.2.928 1.416 1.986 1.201.767-.285 1.402-1.217 1.042-2.108-1.137-1.004-2.6-4.77-2.075-6.086 2.206-2.916 2.54-3.263 3.075-6.188.374-1.897-1.635-2.72-2.436-.954z" fill="#080810"/><path d="M18.176 172.86c-1.03 5.334 1.071 7.312 1.033 8.194.786-.188 1.249-.89 1.042-2.108-.415-1.912-2.572-2.577-2.075-6.086z" fill="#373e48"/></g><g fill="#080810"><path d="m24.046 175.67-6.015 1.082c-.452.152-.425 1.194-.012 3.58.128.72.556.85 1.192.72.46-.17 1.231-.438 1.015-.972-1.028-.287-2.156-3.033-1.748-3.078 2.003.117 5.912.374 7.03-.76.15-.577-.467-.693-1.462-.572zM14.986 169.63l-1.233 6.218c-.303.54-.509 2.009-.09 4.424.129.728.563.86 1.206.73.466-.174.851-.74.633-1.281-.691-.61-1.58-2.898-1.261-3.698 1.34-1.77 1.9-4.037 2.225-5.814.227-1.152-.994-1.652-1.48-.579zM9.746 176.52l-.851 4.29c-.209.374-.35 1.387-.062 3.053.089.503.388.594.832.504.322-.12.588-.51.437-.884-.477-.42-1.09-2-.87-2.551.925-1.222 1.311-2.786 1.535-4.012.157-.795-.685-1.14-1.021-.4z"/></g><path d="M14.246 176.03c.22 3.346.1 5.012.11 5.016.53.065 1.137.173 1.15-1.319-.154-.258-.754-1.928-1.26-3.697z" fill="#373e48"/><path d="m13.756 175.85-3.168 5.227c-.185.44.614 1.108 2.676 2.377.624.38 1.005.144 1.33-.417.175-.459.237-1.128-.307-1.32-.896.58-3.452-.475-3.216-.81 1.413-1.425 4.191-4.186 4.082-5.775-.335-.494-.83-.108-1.397.718z" fill="#080810"/><g fill="#373e48"><path d="M106.386 171.07c.079 1.264-1.747 2.617-3.254 3.955 1.35-.754 4.043-2.175 3.938-2.732.167-.253.113-.948-.684-1.223zM96.046 168.8c.168 1.256-1.65 4.6-3.057 6.041 1.292-.847 3.9-4.002 3.756-4.55.173-.263.326-1.261-.699-1.491zM111.206 179.37c.079 1.264-1.7 3.95-2.95 5.65 1.512-1.046 3.657-3.769 3.706-4.55.1-.428-.04-1.118-.756-1.1zM163.803 176.998c.572 3.595-.836 7.36-3.232 10.116-1.665 5.132-5.233 19.314-8.407 23.05l5.565-6.549 3.376-16.54c.018-.065.026-.144.052-.253 1.27.402 4.546-.584 4.762-5.611.079-2.455-1.243-3.8-2.116-4.213zM106.046 187.15c-.165 3.704-.43 6.415-.582 7.306 1.016-.256 1.709-1.589 1.39-2.23-.095-.845.257 2.362-.808-5.076zM111.186 187.05c-1.367 1.172.275 5.785-.023 6.627 1.016-.256 1.468-.9 1.525-1.51-.998-.938-1.41-.543-1.502-5.117zM95.916 177.64c-1.367 1.172.504 6.564.206 7.406 1.053.158 2.217-.938 1.524-1.51-.998-.938-1.638-1.322-1.73-5.896zM89.996 177.76c-1.61 3.808-.633 7.535-.671 8.417 1.016-.255 1.92-1.928 1.602-2.569-.407-1.7-1.301-.62-.931-5.848zM81.196 171.55c.168 1.256-2.567 5.455-3.976 6.896 1.293-.847 4.82-4.857 4.675-5.405.173-.263.326-1.261-.699-1.49zM76.056 167.57c-.043 1.4-5.062 4.154-6.052 4.919 1.846-.176 6.84-3.14 6.736-3.696.167-.253.113-.948-.684-1.223zM60.056 163.27c.955.785.625 6.64-.023 8.625 1.087-1.326 1.705-7.196 1.326-7.618.033-.312-.286-1.27-1.303-1.007zM81.006 180.38c-1.367 1.172.272 6.793-.026 7.635 1.148-.01 1.784-.972 1.756-1.738-.998-.94-1.638-1.323-1.73-5.897zM65.316 173.66c-1.367 1.172-.073 6.784-.372 7.626 1.054.16 2.526-1.086 1.834-1.657-.999-.939-1.37-1.395-1.462-5.969zM59.306 173.67c-1.03 5.334-.35 7.054-.389 7.936.761-.319 1.232-1.603 1.142-2.206-.407-1.7-1.223-1.531-.753-5.73zM19.806 164.77c.955.785.673 3.808-.585 6.705 1.255-.91 2.447-5.204 2.025-5.733.034-.312-.423-1.235-1.44-.972zM45.366 166.69c-2.677 5.056-4.648 11.518-6.758 17.703l1.534-.055 2.76-10.953c1.25.31 2.854-2.104 3.374-3.473.346-.89.47-1.928-.91-3.222zM38.356 171.25c.955.785-.752 6.41-1.4 8.394 1.086-1.327 2.412-5.465 2.534-7.325-.012-.18-.117-1.332-1.134-1.069zM50.416 179.64c-.367 1.35-2.766 1.312-3.907 1.825 2.733.088 4.41-.892 4.427-1.092.072-.452-.108-.742-.52-.733zM36.626 180.1c-.29 3.436.835 5.44.797 6.322 1.016-.256 1.123-.985.804-1.627-1.113-1.085-1.192-2.733-1.601-4.695zM53.816 171.21l-2.479 11.928.924-1.24.993-5.758c.439-.185.857-.298 1.346-.668.085-.162.54-.229.668-1.548-.08-.193-.151-.417-.606-.426.134-.327.262-.387.119-1.376-.149-.743-.528-.743-.965-.912zM36.036 172.26c-.367 1.35-3.716 1.849-4.857 2.362 2.736.159 5.537-1.007 5.544-1.41.16-.55-.25-.99-.687-.952zM25.156 174.46c-.29 3.436 1.244 5.785 1.206 6.667 1.017-.255 1.615-1.174 1.296-1.815-1.113-1.086-2.093-2.89-2.502-4.852zM14.816 174.91c-.216 1.042-.493 2.598-1.882 4.047 1.328-.923 2.07-2.914 2.15-3.242.072-.328.235-.77-.268-.805zM15.716 169.04c.14 1.055.286 3.63-.547 5.455.949-1.31 1.354-4.288 1.322-4.624-.04-.334-.29-.964-.775-.831zM7.456 172.75l.927 8.419.487-.113-.813-5.427c.353-.188.716-.324.81-.62.116-.318.122-.524-.09-1.002-.061-.091-.19-.203-.42-.127.021-.177.068-.26-.137-.72-.173-.34-.529-.388-.764-.41zM10.496 176.12c-.216 1.042-.024 1.743-.4 3.251.641-1.078.654-2.373.686-2.592-.007-.103 0-.534-.286-.659z"/></g></svg>