<svg width="100" height="100" viewBox="0 0 26.458 26.458" xmlns="http://www.w3.org/2000/svg"><path d="M.118 17.03v2.866H.56v-2.44h.987c.272 0 .494.046.663.139.169.093.293.215.372.368.082.153.123.32.123.5 0 .185-.04.355-.123.507a.859.859 0 01-.372.365c-.17.09-.39.135-.663.135h-.458l.175.426h.303c.355 0 .651-.065.888-.193.238-.131.417-.304.537-.52.123-.218.184-.458.184-.72 0-.194-.034-.377-.103-.549a1.358 1.358 0 00-.81-.77 1.937 1.937 0 00-.696-.114zM4.444 17.03v2.866h2.378l-.387-.426H4.886v-.831h1.549v-.426H4.886v-.757h1.549l.387-.426zM8.226 17.03v2.866l.442-.41v-.77h1.37l.353-.425H8.668v-.835h1.555l.352-.426zM11.928 17.03l.367.438h.382v1.99h-.382l-.367.437h1.94l-.366-.437h-.382v-1.99h.382l.367-.438zM16.421 17.03l-1.4 2.866h.467l1.175-2.436 1.179 2.436h.487l-1.392-2.866zM22.178 17.03h.373v2.866h-.447l-2.288-2.252v2.252h-.364V17.03h.438l2.288 2.309zM23.705 17.03l.356.426h.733v2.44h.442v-2.44h.747l.356-.426z" style="font-variant-caps:normal;font-variant-east-asian:normal;font-variant-ligatures:normal;font-variant-numeric:normal"/><g><path d="M12.764 6.565c-.033.006-.057.04-.059.072.004.047.054.083.074.104a3.576 3.576 0 00-1.932.643c-.443-.253-1.112-.342-1.464-.385-.758-.092-2.7 2.686-2.757 3.189-.044.376 1.216.3 1.371.025.706-1.252 1.458-2.4 1.61-2.364.006 0 .907.319.907.438 0 .238-.358-.12-.477-.12-.05.004-.081.074-.12.12-.458.61-.596 1.25-.596 2.027 0 .724.596 1.67 1.193 2.147.271.217.724.497 1.162.753l.066.036.029.016s.261-.077.379-.074c-.185.05-.302.12-.3.12a.48.48 0 00-.245.551c.082.267.527.432.817.267-.121-.433.178-.65.477-.649.299 0 .598.216.477.65.29.164.734-.001.817-.268a.48.48 0 00-.245-.55l.079-.047.028-.016.066-.036c.44-.256.891-.536 1.163-.753.596-.477 1.192-1.423 1.192-2.147 0-.776-.137-1.417-.596-2.027-.038-.046-.07-.116-.12-.12-.118 0-.476.358-.476.12 0-.12.901-.437.907-.438.151-.037.903 1.112 1.61 2.364.155.276 1.414.35 1.37-.025-.057-.503-1.998-3.28-2.756-3.189-.352.043-1.021.132-1.464.385a3.576 3.576 0 00-1.932-.643c.02-.02.07-.057.073-.104-.001-.033-.025-.066-.058-.072a.065.065 0 00-.036.004s-.037 0-.073.057c-.015.032-.027.034-.026.11.001-.076-.011-.078-.026-.11-.036-.057-.073-.057-.073-.057a.066.066 0 00-.036-.004zm-2.423 3.003l1.833 1.143a1.13 1.13 0 11-1.833-1.143zm5.115 0a1.13 1.13 0 11-1.833 1.143z" opacity=".999"/></g></svg>