<svg width="80" height="80" viewBox="0 0 21.167 21.167" xmlns="http://www.w3.org/2000/svg"><path d="M10.358 4.214c-.056.01-.096.066-.098.12.005.08.09.14.122.174a5.97 5.97 0 00-3.225 1.073c-.74-.421-1.857-.57-2.445-.642C3.446 4.785.205 9.424.108 10.263c-.072.628 2.03.503 2.29.043 1.18-2.092 2.435-4.01 2.688-3.948.01.002 1.514.532 1.514.731 0 .399-.597-.199-.796-.199-.082.007-.135.123-.2.2-.765 1.019-.995 2.088-.995 3.385 0 1.208.996 2.788 1.991 3.584.454.363 1.209.83 1.942 1.257l.11.06.048.027s.436-.127.632-.124c-.308.084-.504.2-.5.202a.801.801 0 00-.41.92c.138.444.88.72 1.364.446-.202-.724.298-1.086.797-1.084.5-.002.999.36.797 1.084.483.275 1.226-.002 1.364-.447a.801.801 0 00-.41-.919l.132-.078.048-.026c.054-.03.104-.058.11-.06.733-.428 1.488-.895 1.942-1.258.995-.796 1.99-2.376 1.99-3.584 0-1.297-.23-2.366-.995-3.386-.064-.076-.117-.192-.199-.199-.199 0-.796.598-.796.2 0-.2 1.504-.73 1.514-.732.253-.061 1.509 1.856 2.688 3.948.26.46 2.362.585 2.29-.043-.097-.84-3.338-5.478-4.604-5.324-.588.071-1.705.221-2.445.642a5.971 5.971 0 00-3.225-1.073c.032-.035.117-.095.122-.174-.002-.054-.042-.11-.098-.12a.11.11 0 00-.06.007s-.061 0-.122.096c-.024.053-.045.056-.043.184.002-.128-.019-.131-.043-.184-.06-.095-.122-.096-.122-.096a.11.11 0 00-.06-.007zM6.312 9.228l3.061 1.91a1.888 1.888 0 11-3.06-1.91zm8.542 0a1.888 1.888 0 11-3.061 1.91z" opacity=".999"/></svg>