<svg width="80.46" height="95.503" viewBox="0 0 21.288 25.268" xmlns="http://www.w3.org/2000/svg"><g transform="translate(-3.841 .274)"><path d="M13.77 10.695c-.098 0-.195.01-.27.032l-7.77 2.22c-.169.078-.263.277-.031.417l7.711 2.292c.149.044.388.045.537.003l7.77-2.221c.197-.103.17-.304.032-.416l-7.711-2.293a1.005 1.005 0 0 0-.268-.034z" fill="#080810"/><path d="m14.164 10.902 7.274 2.162c.14.042.14.108 0 .148l-7.33 2.095c-.141.04-.367.04-.507-.002-1.163-1.634-7.292-2 .056-4.406.14-.04.367-.039.507.003z" fill="#6c5353"/><path d="M23.784 17.944c.334.588 1.11.838 1.345 1.397-.316.28-.55.657-.995.784.027-.581-.826-.618-1.242-1.216z" fill="#080810"/><rect transform="matrix(-.57779 -.81618 -.59778 .80166 0 0)" x="-31.33" y="-9.595" width=".18" height="3.118" ry=".124" fill="#080810"/><path d="M23.747 18.099c.276.486 1.062.812 1.257 1.274-.261.23-.408.49-.777.595.023-.48-.765-.5-1.109-.994z" fill="#782121"/><g fill="#080810"><path d="m24.096 18.415-.321.285.195-.407zM24.104 19.779l.283-.323-.406.197zM17.87 17.519c-.736.439-1.747.229-2.357.697.174.505.194 1.067.605 1.486.334-.657 1.297-.163 2.13-.561z"/><rect transform="matrix(.90565 -.42403 .12352 .99234 0 0)" x="16.364" y="24.541" width=".228" height="3.951" ry=".157"/><path d="M7.922 18.851c-.324-1.256-2.115-.579-2.436-.2-.387.427-.088 1.221.26 1.429.315.188 1.307.386 1.797-.136.354-.378.438-.823.38-1.093z"/></g><path d="M7.745 18.906c-.275-1.068-1.878-.492-2.15-.17-.29.26-.115 1.077.3 1.26.285.125 1.112.336 1.528-.108.301-.321.373-.752.323-.982z" fill="#373748"/><path d="M7.317 18.563c.095.017.238.207.266.237.19.183-.043.951-.345 1.02.078-.287.325-.786.08-1.257z" fill="#556"/><path d="M6.424 18.092c-.182.092-.315.183-.288.387.044.323.144.497.399.697.177.139.392.086.534-.04.455-.4.453-1.148.051-1.11-.232.022-.456-.055-.696.066z" fill="#080810"/><path d="M6.465 18.173c-.162.081-.274.148-.257.33.022.248.2.437.33.578.143.157.479.053.585-.14.24-.442.317-.86-.04-.827-.206.02-.405-.049-.618.059z" fill="#373748"/><path d="M6.853 12.454 8.13 9.666c-.874-1.69-1.297-3.333-.536-5.132C9.094.992 13.293-.126 16.9 1.581c3.85 1.822 5.314 5.668 3.42 9.04-1.91 3.4-6.388 3.416-9.419 1.749z" fill="#080810"/><path d="m7.329 12.143 1.19-2.597c-.813-1.574-1.207-3.105-.498-4.78 1.396-3.3 5.308-4.342 8.667-2.752 3.586 1.698 4.95 5.28 3.186 8.422-1.78 3.167-5.95 3.182-8.774 1.628z" fill="#f9f9f9"/><path d="M14.15 3.69c-1.053-.505-2.65-.333-3.253 1.329-.703 1.936 1.23 3.866 1.54 5.883 1.736-1.075 4.458-.862 5.472-2.655 1.358-2.401-1.615-4.285-2.773-3.206.024-.568-.395-1.066-.986-1.35z" fill="#080810"/><path d="M14.022 3.984c-.975-.465-2.4-.314-2.953 1.211-.662 1.821 1.21 3.52 1.502 5.417 1.632-1.012 4.139-.694 5.093-2.38 1.277-2.26-1.567-3.926-2.657-2.911.024-.558-.4-1.059-.985-1.337z" fill="#dc5d71"/><path d="M12.539 3.803c-1.587.39-1.675 2.024-1.591 2.523.06 1.02 1.072 2.334 1.623 4.286-.574-2.538-.97-4.991-.032-6.81z" fill="#b6495b"/><g fill="#080810"><path d="M11.886 4.47c-.385.474-.6 1.048-.6 1.608 0 .128.284.154.28-.028-.009-.564.279-1.041.553-1.428.087-.121-.134-.274-.233-.152zM15.774 9.192c.652-.115.972-.409 1.319-.731.104-.097-.103-.342-.242-.196-.433.451-.625.536-1.142.626-.163.028-.107.332.065.301z"/><ellipse transform="rotate(24.72)" cx="17.678" cy="1.897" rx=".146" ry=".143"/></g><path d="M6.901 18.039a.694.694 0 0 1 .266.136c.19.184.066.675-.25.826.078-.286.23-.49-.016-.962z" fill="#556"/><path d="M6.958 18.313c-1.04-.107-1.229-.052-1.744-.69-.343-.931-.108-1.82.876-2.068.888-.224 1.48-.05 1.83.662.393.86.124 1.631-.962 2.096z" fill="#080810"/><path d="M6.901 18.063c-.175.05-1.127-.409-1.415-.771-.202-.892-.155-1.23.286-1.497.737-.446 1.767-.227 2.076.43.415 1.093-.038 1.432-.947 1.838z" fill="#373748"/><ellipse transform="matrix(.91367 -.40646 .62048 .78422 0 0)" cx="-5.704" cy="18.259" rx=".31" ry=".293" fill="#080810"/><path d="M7.501 15.961c.093.04.226.19.25.237.36.808.08 1.192-.4 1.531.108-.402.345-1.048.15-1.768z" fill="#556"/><path d="M5.677 16.111c.026.052.047.113-.02.19-.093.068-.136.017-.173.007-.296-.314-.425-.556-.661-.925l-.585.465c-.38.232-.433-.12-.38-.158.318-.265.637-.27.98-.41.344.246.523.484.839.831z" fill="#080810"/><path d="M4.882 15.345c.324.282.515.507.771.813.016.07-.012.141-.12.122-.3-.284-.437-.557-.672-.91-.019-.025.004-.035.02-.025zM4.71 15.368c.01.003.027 0 .008.026-.273.133-.5.23-.742.44-.077.013-.097.002-.093-.102.176-.243.506-.245.826-.364z" fill="#373748"/><path d="M7.357 15.786c-.014.056-.02.121.063.18.107.044.137-.015.17-.034.215-.373.226-.447.37-.861l.406.129c.423.137.393-.219.332-.243-.372-.19-.51-.052-.776.017-.278.32-.339.401-.565.812z" fill="#080810"/><path d="M7.894 15.048c-.25.35-.325.422-.503.778.001.073.045.135.144.091.227-.346.239-.451.384-.85.013-.028-.01-.033-.025-.02zM7.993 15.001c-.01.006-.01.03.026.032.35-.034.293-.022.599.092.078-.005.094-.02.067-.12-.23-.196-.666-.041-.692-.004z" fill="#373748"/><ellipse transform="matrix(.82404 -.56654 .68456 .72896 0 0)" cx="-6.03" cy="18.041" rx=".244" ry=".267" fill="#080810"/><path d="M6.806 19.176c.06.368.123.34.307.479.214.07.437.002.487-.15.007-.374-.1-.47-.35-.662a1.192 1.192 0 0 1-.444.333z" fill="#080810"/><path d="M6.96 19.286c.021.199.065.209.178.276.091.091.332-.027.356-.163-.041-.336-.165-.385-.236-.427-.052.145-.158.212-.298.314z" fill="#373748"/><path d="M7.113 19.655c-.098.289.099.426.2.506.017.103.102.349.391.334.3-.056.295-.237.26-.311-.01-.069-.106-.183-.24-.26l-.124-.42c-.154.1-.11.175-.487.151z" fill="#080810"/><path d="M7.56 19.62c-.054-.04-.33.03-.379.177.045.187.05.212.15.241.092.03.26-.01.296-.149.012-.11-.019-.238-.068-.269zM7.671 19.988c-.061.06-.173.169-.286.176.022.041-.04.223.292.26.159.007.226-.091.243-.171.004-.111-.09-.268-.249-.265z" fill="#373748"/><g fill="#080810"><path d="M7.377 18.64c.39.006.48-.098.589-.179.089-.2 0-.347-.153-.454-.143.003-.287.01-.46.15z"/><path d="M7.973 18.453c.226-.14.452-.183.459-.571-.1-.102-.169-.174-.385-.12-.1.026-.242.07-.234.244z"/><path d="M8.052 17.709c-.053-.065-.076-.262-.016-.347.043-.054.114-.082.178.057l.045.144c.028-.14.026-.31.104-.404.032-.055.185-.129.223.062a.797.797 0 0 1-.055.301c.046-.096.098-.224.163-.243.07-.008.164.08.162.197.014.098-.16.426-.436.434-.111.018-.245-.072-.369-.201z"/></g><g fill="#373748"><path d="M7.434 18.187c-.052.117-.06.22-.008.296.065.084.326.05.44-.024.095-.1.019-.357-.093-.368-.158.004-.254-.015-.34.096zM7.895 17.949c-.032.147.086.36.192.349.113-.01.239-.279.244-.35-.015-.128-.122-.161-.21-.134-.116.034-.185.035-.226.135zM8.695 17.356c-.105.014-.125.192-.193.302-.06.026-.065-.005-.065-.023.08-.139.118-.343.105-.407-.019-.07-.103-.103-.142-.048-.08.113-.081.278-.11.425-.021.04-.027.025-.057.02a.352.352 0 0 0-.067-.22c-.055-.047-.08-.02-.085.047-.01.102.01.152.106.234.322.208.447-.04.557-.245.018-.045-.018-.093-.048-.085z"/></g><path d="M20.327 20.051c1.17.14 2.317-.024 2.892-.884.642-1.368.4-2.749-1.063-3.25-1.32-.454-2.238-.267-2.862.77-.634 1.1-.6 2.727 1.033 3.364z" fill="#080810"/><path d="M19.692 19.401c-.996-.496-.684-2.288.108-3.124.645-.662 2.055-.538 2.836-.056-1.782-.084-3.18 2.603-2.944 3.18z" fill="#373748"/><path d="M20.383 16.686c0 .088-.015.186-.158.243-.175.027-.198-.071-.24-.111-.182-.63-.188-1.05-.25-1.714l-1.117.223c-.676.049-.502-.467-.403-.48.615-.137 1.049.08 1.611.127.295.575.371 1.022.557 1.712z" fill="#080810"/><path d="M19.841 15.094c.1.611.212 1.256.392 1.631-.028.107-.085.14-.161.09-.21-.595-.205-1.06-.276-1.703-.009-.045.029-.044.045-.018zM19.592 15.005c.01.011.037.02-.006.041-.462-.01-.838-.036-1.313.078-.113-.035-.132-.064-.055-.202.408-.207.857.02 1.374.083z" fill="#373748"/><path d="M23.045 16.593c-.064.06-.146.117-.285.052-.14-.108-.085-.193-.084-.251.333-.565.423-.636.863-1.138l-.477-.44c-.5-.457-.006-.685.072-.623.531.35.452.636.562 1.04-.215.61-.277.751-.651 1.36z" fill="#080810"/><path d="M23.619 15.326c-.323.522-.52.678-.822 1.237-.074-.03-.038-.084-.051-.17.288-.56.41-.594.83-1.087.026-.038.05-.01.043.02zM23.36 14.949c.015.006.045-.015.015-.061-.224-.297-.253-.395-.246-.546-.078-.09-.112-.096-.207.031-.011.306.368.579.438.576z" fill="#373748"/><path d="M20.5 19.842c-.337.136-.588.278-.57.646.029.581.18.907.604 1.3.294.275.685.213.958.011.87-.644.98-1.977.258-1.97-.417.005-.804-.166-1.25.013z" fill="#080810"/><path d="M20.56 19.993c-.3.12-.468.225-.508.55-.03.251.15.662.358.933.056-.852-.05-.932.15-1.483z" fill="#373748"/><g fill="#080810"><path d="M18.443 19.88a.197.197 0 0 0-.061.011c-.076.033-.131.105.008.223l.03.02c-.062-.023-.155-.027-.312.031-.015.028-.195.29.015.387-.031.078.03.25.165.284.088.038.352-.009.515-.188.157.266.438.25.663.24.296.184.453.253.959.07.147-.33.224-.642.009-.67-.305-.213-.574-.202-.868-.079-.148-.147-.434-.167-.529-.15a.541.541 0 0 0-.2.068 1.44 1.44 0 0 0-.06-.11c-.05-.068-.214-.142-.334-.137zM6.217 18.783c-.387.043-.487-.053-.603-.122-.108-.192-.032-.346.11-.467.142-.01.286-.017.47.107z"/><path d="M5.606 18.654c-.239-.119-.468-.14-.51-.525.089-.111.151-.189.371-.155.102.015.248.047.256.22z"/><path d="M5.458 17.92c.046-.07.05-.268-.018-.347-.048-.05-.12-.07-.172.073l-.03.148c-.042-.137-.056-.306-.142-.393-.038-.05-.196-.11-.216.083a.797.797 0 0 0 .082.295c-.054-.09-.118-.213-.184-.226-.07-.002-.156.095-.143.21-.004.1.198.41.475.392.112.007.237-.095.348-.235z"/></g><g fill="#373748"><path d="M6.118 18.338c.063.111.08.214.035.294-.057.09-.32.08-.439.017-.105-.09-.053-.354.056-.375.159-.01.252-.039.348.064zM5.636 18.144c.046.143-.052.366-.159.365-.112.002-.263-.254-.275-.325.003-.129.106-.172.196-.153.12.023.188.018.238.113zM4.783 17.629c.107.004.143.18.221.283.063.02.064-.012.063-.03-.093-.13-.15-.33-.143-.395.012-.072.093-.112.137-.061.09.105.107.27.15.413.024.038.029.022.058.013a.352.352 0 0 1 .046-.224c.05-.053.078-.027.09.039.019.1.003.152-.084.243-.301.237-.449.003-.578-.192-.022-.043.009-.094.04-.089z"/></g><g><path d="M6.704 19.208c-.06.368-.123.34-.308.479-.214.07-.437.002-.487-.15-.006-.374.101-.47.35-.662.123.134.257.259.445.333z" fill="#080810"/><path d="M6.549 19.318c-.02.199-.064.209-.177.276-.092.091-.333-.027-.357-.163.041-.336.165-.385.237-.427.052.145.157.212.297.314z" fill="#373748"/><path d="M6.396 19.687c.099.289-.098.426-.2.506-.017.103-.102.349-.391.334-.3-.056-.295-.237-.26-.311.01-.069.107-.183.24-.26l.124-.42c.154.1.11.175.487.151z" fill="#080810"/><path d="M5.95 19.653c.053-.04.33.03.378.177-.045.187-.05.212-.149.241-.093.03-.26-.01-.297-.149-.011-.11.019-.238.068-.269zM5.838 20.02c.062.06.174.169.286.176-.022.041.04.223-.292.26-.159.007-.226-.091-.243-.171-.004-.111.09-.268.25-.265z" fill="#373748"/></g><g fill="#080810"><path d="M21.839 21.444c.283.416.2 1.339.144 1.425.06.019.253.378.019.634-.31.2-.89.012-.95-.09-.085-.07-.228-.49.05-.603.09-.066-.144-1.078-.014-1.176.211.127.246-.142.751-.19z"/><path d="M21.254 21.142c-.44.628-.406 1.536.446 2.148.439.315 2.66.739 3.177-.933.196-.634-.418-2.227-1.629-2.352-1.369-.203-1.625.616-1.994 1.137z"/><path d="M21.011 21.972c-.08.495-.166.458-.415.645-.288.095-.588.003-.655-.203-.01-.503.136-.633.471-.891.165.181.346.349.599.449z"/><path d="M20.689 22.551c.27.425-.106.592-.165.676.059.021.24.386-.001.635-.316.19-1.206-.048-1.228-.164-.107-.204.017-.501.503-.553.092-.062.011-.636.144-.73.207.134.241.168.747.136z"/></g><g><path d="m7.329 12.143 1.19-2.597c-2.03-3.52-.23-6.745 2.624-7.825-3.709 4.754-1.751 7.587-1.115 10.366z" fill="#b3b3b3"/><path d="m6.61 14.815-.015.002c-.034.023-.04.044-.048.065l-.025.002-.038-.052c-.032-.008-.091-.004-.116.014l-.024.06-.026.003-.061-.052c-.046-.004-.087.005-.113.059l-.036.054c-.275.224-.247.397-.26.674l-.03.003-.003.03-.019.023.008.06a.568.568 0 0 0 .23.13c.178.047.367.028.517.012.15-.019.365-.051.501-.133.112-.087.149-.136.194-.18l-.007-.06-.023-.017-.01-.029-.03.004c-.078-.266-.09-.44-.41-.594l-.047-.045a.23.23 0 0 0-.109-.033z" fill="#080810"/><path d="M6.247 14.872c-.033.004-.056.005-.081.06l-.034.05c-.259.212-.232.374-.245.635.149.123.47.08.642.064.17-.025.494-.057.61-.212-.074-.25-.086-.415-.387-.56l-.044-.042c-.037-.03-.077-.027-.117-.03l-.045.062-.024.002-.035-.049c-.036-.011-.086-.011-.11.013l-.023.056-.035.007c-.029-.023-.055-.048-.072-.056z" fill="#fc0"/><path d="M5.887 15.617c-.027-.282.03-.513.245-.634-.03.229.171.45.397.698-.112.012-.481.083-.642-.064zM6.368 14.847l-.014.074h-.045c.024.032.048.07.087.103.004.005.015.01.018-.005-.006-.047-.008-.087-.018-.123z" fill="#080810"/><path d="m5.85 15.658-.026.003-.004.029.179.138c.109.064.432.042.54.035l.016-.002c.107-.018.426-.072.518-.16l.141-.176-.01-.027-.026.003c-.098.134-.45.228-.636.244l-.02.004c-.185.029-.546.017-.673-.091z" fill="#fc0"/></g><g fill="#080810"><path d="m5.812 15.705.11.071-.098-.115zM6.595 14.817l-.047.065-.026.02.015.1c.004.01.009.008.014.007.025-.054.033-.124.044-.192zM6.144 14.916l.022.015.073.103c.007.013-.001.015-.01.015l-.12-.078zM6.061 15.561a.097.097 0 0 0-.04.054l.001.054-.017.02.006.073c.015.011.084.042.209.03a.077.077 0 0 0 .037-.021l.004-.06-.025-.009.003-.116z"/></g><g><path d="M6.062 15.573c-.023.008-.023.019-.032.034l.165.011.006.097.025.007-.005.061.024-.024.005-.038-.025-.016.003-.108z" fill="#fc0"/><path d="M6.982 15.419a.097.097 0 0 1 .059.034l.02.05.022.012.024.07c-.01.016-.062.072-.182.108a.077.077 0 0 1-.042-.005l-.028-.054.02-.017-.047-.107z" fill="#080810"/><path d="M6.986 15.431c.025-.002.03.008.043.019l-.148.074.032.092-.02.016.028.054-.035-.003-.025-.05.027-.018-.045-.098z" fill="#080810"/><path d="m7.03 15.45.021.06a.445.445 0 0 1-.044.033c0 .004.003.006.003.008l.063-.024.019.058c-.057.058-.114.078-.17.102-.015-.017-.03-.033-.029-.055a.077.077 0 0 1 .016-.026.204.204 0 0 1-.028-.082.268.268 0 0 1 .148-.074z" fill="#fc0"/></g><g fill="#080810"><path d="M6.949 15.126a.29.29 0 0 0-.132-.132c-.015-.009-.037.024-.015.036.068.036.085.056.113.114.01.018.043.001.034-.018z"/><ellipse transform="rotate(17.98)" cx="11.311" cy="12.317" rx=".024" ry=".023"/><path d="M21.201 14.918c-.029.001-.05.014-.087.032l-.054.052c-.367.176-.329.38-.418.684l-.034-.003-.012.032-.026.02-.008.07c.052.05.185.185.313.285.157.094.403.13.575.152.173.019.39.041.594-.013.107-.028.134-.138.174-.229l.008-.068-.02-.027-.004-.034-.034-.004c-.016-.317-.017-.54-.333-.797l-.04-.063c-.03-.062-.128-.06-.18-.056l-.017.057h-.06l-.03-.068c-.028-.02-.117-.026-.153-.018l-.013.068-.05.014c-.009-.024-.02-.057-.06-.084a.136.136 0 0 0-.03-.002z"/></g><path d="M21.646 14.969c.038.005.11.025.138.087l.039.059c-.194.051-.347.014-.75.244-.132.074-.214.155-.371.337.07-.284.063-.5.41-.665l.023-.063c.042-.034.068-.035.11-.02l.044.077.08-.016.002-.065c.041-.013.095-.014.123.014l.035.085.092-.014a.265.265 0 0 1 .025-.06z" fill="#ffae00"/><g fill="#080810"><path d="M21.135 14.968c-.07.013-.05.033-.024.063l.169.167zM21.371 14.944c-.012.015-.019.032-.002.064l.11.137zM21.62 15.029l.1.09-.074-.15c-.036.01-.046.026-.026.06z"/></g><path d="M20.624 15.704h.038c.036.043.127.123.26.23-.122-.043-.209-.138-.298-.23zM20.597 15.745v.057c.095.088.152.176.294.266l.058-.051c-.125-.057-.236-.175-.352-.272z" fill="#ffae00"/><path d="M17.814 17.712c-.609.363-1.678.23-2.183.616.144.418.143.796.483 1.143.276-.544 1.156-.072 1.845-.402z" fill="#782121"/><g fill="#080810"><path d="m17.232 17.842.175.515.04-.57zM16.368 19.34l-.11-.533.324.472zM20.323 12.94l-.458.188v.052l.44.229.592-.227v-.052z"/></g><path d="m20.324 12.94-.459.188.44.229.592-.227z" fill="#ac9393"/><path d="M20.377 12.546a.38.342 0 0 0-.379.34.38.342 0 0 0 .38.342.38.342 0 0 0 .378-.341.38.342 0 0 0-.379-.341zm.044.123a.237.214 0 0 1 .237.214.237.214 0 0 1-.237.214.237.214 0 0 1-.237-.214.237.214 0 0 1 .237-.214z" fill="#080810"/><path d="M20.42 12.552a.36.324 0 0 0-.36.324.36.324 0 0 0 .36.325.36.324 0 0 0 .359-.325.36.324 0 0 0-.36-.324zm.001.117a.237.214 0 0 1 .237.214.237.214 0 0 1-.237.214.237.214 0 0 1-.237-.214.237.214 0 0 1 .237-.214z" fill="#916f6f"/><path d="m6.92 12.755-.46.188.44.229.592-.227z" fill="#ac9393"/><g><path d="M7.026 13.124c-.13-.129-.178-.282-.148-.42l-.513.262c.188.062.406.455.66.158z" fill="#080810"/><path d="M6.973 12.361a.38.342 0 0 0-.379.341.38.342 0 0 0 .38.342.38.342 0 0 0 .378-.342.38.342 0 0 0-.379-.341zm.044.124a.237.214 0 0 1 .237.213.237.214 0 0 1-.237.214.237.214 0 0 1-.237-.214.237.214 0 0 1 .237-.213z" fill="#080810"/><path d="M7.015 12.368c-.198 0-.297.153-.297.332 0 .18.098.317.297.317.2 0 .36-.146.36-.325 0-.179-.161-.324-.36-.324zm.002.117c.131 0 .237.096.237.214 0 .117-.106.213-.237.213-.13 0-.237-.095-.237-.213s.106-.214.237-.214z" fill="#916f6f"/><path d="m16.881-.153-.53.01 3.826 12.7c-.006.063.034.126.103.181.136.052.2-.002.266-.03.036-.06.021-.123-.011-.179z" fill="#080810"/></g><path d="M20.294 12.691c-.039-.036-.068-.06-.035-.135L16.51-.068l.308.002 3.666 12.61c.047.03.068.077.035.142-.033.041-.147.05-.224.005z" fill="#784421"/><path d="m10.534-.274.53.01-3.826 12.7c.006.062-.034.125-.103.181-.136.052-.2-.002-.266-.03-.036-.06-.021-.123.011-.179z" fill="#080810"/><path d="M7.12 12.57c.04-.036.069-.06.036-.135l3.75-12.624-.308.002-3.667 12.61c-.046.03-.067.077-.034.142.033.041.147.05.224.005z" fill="#784421"/></g></svg>