<svg width="200.15" height="145" viewBox="0 0 52.957 38.365" xmlns="http://www.w3.org/2000/svg"><g transform="translate(5.174 12.118)"><path d="M-.56 17.324c-1.883-3.181 1.752-4.901-2.62-10.434-3.191-4.038-2.428-7.733 1.4-13.752 4.42-6.95 11.686-5.08 22.453-4.874 9.72.187 7.87 3.927 12.7 12.512 1.034 1.836-1.965 6.407 1.177 9.176 2.394 2.11 2.635 4.587.919 7.4l-9.82.409z"/><path d="m29.937 15.412-3.215-2.184-3.076-.221-1.894 1.385z" fill="#999"/><path d="M-.56 17.324c-4.191 9.16 13.452 8.557 17.5 8.55 5.71-.81 10.567 1.231 17.905-5.023 1.007-.985 1.092-1.741.625-3.5-4.895-3.533-29.573-4.895-36.028-.027z" fill="#999"/><g transform="translate(1.316 .21)"><path d="M-1.876 17.113c-3.855 7.683 8.216 8.749 17.5 8.55 3.27-.24 7.147-.114 9.801-.723C-3.2 20.453.257 15.917.215 15.974z" fill="#666"/><path d="M29.066-12.294s3.254 3.13 4.724 2.874c2.903-.504 3.528-.807 6.233-.474 3.46.425 4.064 3.286 6.148 4.982 1.006.818-.88 13.309-.88 13.309s-3.735-1.314-5.29-2.834c-1.3-1.272-4.314-2.713-6.55-1.438-2.62 1.493-5.49-2.505-5.49-2.505z"/><rect transform="matrix(.99988 .01565 -.06 .9982 0 0)" x="26.723" y="-12.759" width="1.581" height="33.046" ry=".059"/><path d="M28.67-11.552s3.605 3.12 4.909 2.953c3.186-.407 3.177-.878 5.559-.585 3.045.374 4.41 2.848 6.244 4.34.885.72-.69 11.886-.69 11.886s-3.842-1.51-5.485-2.873c-1.456-1.207-4.479-1.377-6.38-.667-2.487.929-4.89-3.153-4.89-3.153z" fill="#373748"/><rect transform="matrix(.9962 .08713 -.06153 .99811 0 0)" x="27.025" y="-14.011" width=".889" height="31.712" ry=".056" fill="#53536c"/><path d="M37.21-4.805c-.02.002-.037.02-.04.04 0 .028.029.052.04.066a2.153 2.153 0 0 0-1.193.285c-.252-.174-.649-.263-.858-.306-.45-.095-1.758 1.47-1.819 1.769-.045.223.714.244.821.087.489-.715 1-1.365 1.088-1.335.004 0 .528.238.522.31-.013.143-.209-.09-.28-.097-.03 0-.053.04-.078.066-.307.342-.422.719-.463 1.185-.037.434.271 1.032.604 1.35a6.518 6.518 0 0 0 .696.536l.017.011s.16-.032.23-.025a.708.708 0 0 0-.186.057.289.289 0 0 0-.175.318c.036.164.294.286.476.202-.05-.266.14-.38.32-.364.18.015.347.16.252.414.165.114.44.037.504-.118a.289.289 0 0 0-.118-.343l.05-.024.017-.008a6.383 6.383 0 0 0 .778-.41c.383-.255.79-.791.827-1.225.04-.466-.01-.857-.253-1.247-.02-.03-.036-.073-.065-.078-.072-.006-.305.19-.292.047.006-.072.563-.215.566-.216.093-.014.485.714.843 1.502.08.173.83.283.824.056-.009-.305-1.029-2.072-1.488-2.056-.214.008-.62.027-.898.155a2.153 2.153 0 0 0-1.126-.486c.013-.011.045-.03.05-.058 0-.02-.012-.04-.032-.046a.04.04 0 0 0-.021 0s-.022-.002-.047.03c-.01.019-.018.02-.021.065.004-.046-.003-.047-.01-.067-.02-.036-.041-.038-.041-.038a.04.04 0 0 0-.021-.004zM35.6-3.13l1.04.78a.68.68 0 1 1-1.04-.78zm3.069.265a.68.68 0 1 1-1.159.591z" opacity=".999" fill="#9b291e"/><path d="m34.153 17.14-.555-2.144-4.143-1.301-1.502 1.373z" fill="#999"/></g><path d="m30.771 13.906-1.503 1.373 2.764.635c-.239-.505-.435-1.207-.301-1.707z" fill="#4d4d4d"/><path d="m5.4 15.077-2.17-1.322-3.268.4-1.102 1.337c.064.409-.062.684.58 1.832C1 16.05 3.299 15.684 5.4 15.077z" fill="#999"/><path d="m-.038 14.156-1.102 1.336c.022.438.026.857.58 1.832l2.091-1.139C.49 15.72.191 14.951-.038 14.155z" fill="#4d4d4d"/><g fill="#fff" transform="translate(1.316 .21)"><ellipse cx="1.413" cy="-7.385" rx=".479" ry=".482"/><ellipse cx="3.446" cy="-4.805" rx=".339" ry=".342"/><ellipse cx="4.269" cy="-6.781" rx=".241" ry=".243"/><ellipse transform="rotate(76.302)" cx="-3.789" cy="-1.859" rx=".479" ry=".482"/><ellipse transform="rotate(76.302)" cx="-1.756" cy=".721" rx=".339" ry=".342"/><ellipse transform="rotate(76.302)" cx="-.933" cy="-1.255" rx=".241" ry=".243"/><ellipse transform="rotate(-80.232)" cx="-4.206" cy="-.566" rx=".479" ry=".482"/><ellipse transform="rotate(-80.232)" cx="-2.173" cy="2.015" rx=".339" ry=".342"/><ellipse transform="rotate(-80.232)" cx="-1.351" cy=".039" rx=".241" ry=".243"/><ellipse transform="rotate(67.747)" cx="7.181" cy="1.119" rx=".479" ry=".482"/><ellipse transform="rotate(67.747)" cx="9.214" cy="3.699" rx=".339" ry=".342"/><ellipse transform="rotate(67.747)" cx="10.036" cy="1.723" rx=".241" ry=".243"/><ellipse transform="rotate(31.067)" cx="1.424" cy="-13.125" rx=".479" ry=".482"/><ellipse transform="rotate(31.067)" cx="3.457" cy="-10.545" rx=".339" ry=".342"/><ellipse transform="rotate(31.067)" cx="4.279" cy="-12.521" rx=".241" ry=".243"/><ellipse transform="rotate(130.27)" cx="-18.821" cy="-6.618" rx=".479" ry=".482"/><ellipse transform="rotate(130.27)" cx="-16.788" cy="-4.038" rx=".339" ry=".342"/><ellipse transform="rotate(130.27)" cx="-15.965" cy="-6.014" rx=".241" ry=".243"/><ellipse transform="rotate(227.14)" cx="-10.434" cy="19.014" rx=".479" ry=".482"/><ellipse transform="rotate(227.14)" cx="-8.4" cy="21.594" rx=".339" ry=".342"/><ellipse transform="rotate(227.14)" cx="-7.578" cy="19.618" rx=".241" ry=".243"/><ellipse transform="rotate(-68.163)" cx="9.507" cy="20.002" rx=".479" ry=".482"/><ellipse transform="rotate(-68.163)" cx="11.539" cy="22.582" rx=".339" ry=".342"/><ellipse transform="rotate(-68.163)" cx="12.362" cy="20.606" rx=".241" ry=".243"/><ellipse transform="rotate(77.907)" cx="8.531" cy="-23.358" rx=".479" ry=".482"/><ellipse transform="rotate(77.907)" cx="19.414" cy="-29.082" rx=".339" ry=".342"/><ellipse transform="rotate(77.907)" cx="16.481" cy="-27.974" rx=".241" ry=".243"/></g><path d="M8.954 19.115c-.382.17-.78.249-1.114.71-.194.536-.123 1.395-.02 1.9.378.27 1.744.355 3.577.053a7.28 7.28 0 0 0 2.776-1.507c.147-.197.299-.49.057-1.141.103-.606.218-1.582.62-2.36l-6.048-.252c.316 1.44.24 2.66.152 2.597zM21.885 18.587c1.035.016 1.858.133 2.132.397.263.098.422 1.673.08 2.036-1.055.333-1.945.52-3.316.313-.702-.1-2.13-.417-3.469-.866-.135-.107-.372-.814-.1-1.27.08-.855-.21-1.742-.328-2.613l5.162-.157c-.215 1.28-.41 2.089-.161 2.16z"/><path d="M8.405 9.412c-2.51 1.045-2.86 3.886-2.443 5.311.716 2.453 3.445 2.436 6.193 2.03zM22.678 2.22c.028.566-.007 1.222-.282 1.842.348.097.495.222.424.664-.095.59-.884.375-1.405.44l.021 1.056c1.272.099 2.619-.108 2.637-1.689.018-1.549-.622-1.96-1.395-2.314z"/><path d="M22.857 2.517c.024.494-.083.876-.323 1.417.344.072.597.464.499.841-.14.54-1.156.559-1.476.555l-.008.793c1.108.086 2.368-.225 2.425-1.637.049-1.218-.511-1.659-1.117-1.97z" fill="#214478"/><path d="M8.877 9.166c-2.51 1.045-2.86 3.886-2.443 5.311.716 2.453 3.445 2.436 6.193 2.03z" fill="#f4e3d7"/><path d="M22.321-1.74 6.834-2.601l-.168 13.905 15.52.86c-.093-4.629.354-9.28.135-13.904z"/><path d="M21.894-1.383 7.256-2.196l-.16 13.143 14.67.813c-.088-4.375.335-8.771.128-13.143z" fill="#f4e3d7"/><path d="m7.096 10.946 14.67.814-.011-1.516L8.173 9.54z" fill="#cfbfb1"/><path d="m7.219-2.196 1.804.629.114 9.865-2.04 2.648z" fill="#a58c82"/><path d="M9.51 5.214c-2.287 5.535-.614 6.254-.136 8.378l-.627 3.25c1.225.659 4.494.674 5.978.25 1.361-2.271 2.289-.029 2.518.057l4.82-.22c.025-.866-.568-6.244-.655-6.45l-.578-3.937c-5.1 1.81-8.886-.505-11.32-1.328z"/><path d="m20.583 6.75.415 3.859c1.33-.3 1.178.08 4.19-.354l.197-2.52s-1.257-.374-2.324-.583c-1.067-.208-1.5-.218-2.478-.403zM22.506 1.935c.42.131.13 2.238-.305 2.294a2.23 2.23 0 0 1-1.498-.358l.303-2.065c.384-.066.764-.084 1.5.129z"/><path d="M22.415 2.057c.372.117.115 1.982-.27 2.032a1.975 1.975 0 0 1-1.327-.318l.27-1.828c.339-.058.675-.075 1.327.114z" fill="#f4e3d7"/><path d="M21.043 2.242c.669-.161.923-.017 1.176.129.138.402.196.813-.189 1.277-.394.206-.783.088-1.169-.169z"/><path d="M21.155 2.389c.532-.129.735-.013.936.102.11.32.156.648-.15 1.017-.314.164-.623.07-.93-.134z" fill="#f4e3d7"/><path d="m20.537 5.702.046 1.047c-3.18 1.608-7.04.226-9.284-.69l-1.54-.58c-.864-1.142-1.522-3.37-1.256-5.12.647-4.271 2.697-6.244 7.847-5.764 5.584.987 6.836 7.325 4.187 11.107z"/><path d="m20.23 5.435.044.987c-2.999 1.516-6.64.213-8.755-.651l-1.452-.547C9.252 4.147 8.632 2.046 8.882.396c.61-4.028 2.543-5.888 7.4-5.435 5.266.93 6.446 6.907 3.948 10.474z" fill="#f4e3d7"/><path d="M13.664-5.029c-5.755.615-5.388 8.085-3.597 10.253 1.121.237 3.933 1.935 6.016 1.812-7.205-2.606-5.09-9.813-2.419-12.064z" fill="#cfbfb1"/><path d="M12.595-4.819c-1.994.514-5.943 3.517-2.623 10.104l1.744.564C10.112.59 7.642-1.32 12.595-4.819z" fill="#a58c82"/><path d="M20.23 5.435c-1.48 2.004-5.133 1.08-7.38.142-1.094-.944-1.687-2.666-1.258-4.988.733-3.277 3.15-3.286 5.024-3.523 1.304-.041 3.234.324 4.444 2.144.833 2.486.573 4.448-.83 6.225z"/><path d="M19.977 5.191c-1.379 1.869-4.785 1.008-6.88.133-1.02-.88-1.573-2.485-1.172-4.65.683-3.055 2.936-3.063 4.683-3.284 1.216-.038 3.015.302 4.142 1.998.777 2.318.535 4.147-.773 5.803z" fill="#241c1c"/><path d="M17.551 5.329c-2.614-.334-4.152-.567-4.775-3.234-.213-2.305.854-4.169 3.222-4.132 2.137.034 3.364.781 3.724 2.6.34 2.003-.477 4.229-2.171 4.765z" fill="#080810"/><path d="M17.493 5.035c-2.783-.222-3.85-.815-4.373-2.576-.43-2.12.151-3.673 2.016-4.146 1.95-.494 4.119.557 4.419 2.223.276 2.714-.7 3.948-2.062 4.499z" fill="#373748"/><path d="M16.787 1.746a.96.834 21.447 0 1-.47.884.96.834 21.447 0 1-1.12-.242.96.834 21.447 0 1-.161-1.02z" fill="#080810"/><path d="M18.933-.27c.185.145.394.564.42.686.323 2.038-.697 3.91-1.982 4.385.486-.842 1.566-3.331 1.562-5.07z" fill="#556"/><path d="M18.124 1.843a.47.658-.428 0 0 .257.703.47.658-.428 0 0 .555-.143.47.658-.428 0 0 .055-.785z" fill="#080810"/><path d="M13.563 2.71c-.261-.192-.464-2.121-.33-2.23.181-.987 1.572-2.405 2.54-1.892-.72.662-2.102 2.208-2.21 4.122z" fill="#556"/><path d="M14.732-1.033c.028.132.038.284-.158.415-.252.097-.32-.042-.395-.089-.478-.884-.623-1.508-.932-2.483l-1.598.696c-.996.293-.904-.535-.76-.587.876-.404 1.596-.221 2.453-.333.627.765.888 1.409 1.39 2.38z" fill="#080810"/><path d="M13.402-3.24c.56.832.854 1.455 1.247 2.297-.007.17-.112.312-.343.204-.506-.823-.65-1.519-.965-2.459-.028-.065.028-.075.061-.042zM13-3.292c.02.013.061.017.005.063-.696.136-1.266.219-1.94.544-.182-.016-.22-.053-.148-.285.544-.442 1.288-.247 2.083-.322z" fill="#373748"/><path d="M18.14-1.024c-.028.132-.038.284.158.415.252.098.32-.041.395-.088.478-.884.5-1.059.809-2.033l.954.276c.996.293.903-.535.76-.587-.88-.42-1.192-.09-1.81.087-.627.764-.764.958-1.266 1.93z" fill="#080810"/><path d="M19.346-2.78c-.56.831-.731 1.004-1.124 1.847.008.169.113.311.343.204.507-.823.528-1.069.842-2.009.028-.065-.028-.076-.061-.042zM19.573-2.894c-.02.014-.022.068.063.073.817-.103.683-.07 1.403.176.182-.016.22-.053.148-.285-.546-.442-1.555-.053-1.614.036z" fill="#373748"/><path d="M18.398-3.113c-.047.273-2.163.157-2.864-.132l-2.453-1.248c.04-.845 2.184-1.309 4.559.152.605.324.684.75.758 1.228z"/><path d="M18.109-3.235c-.042.24-1.928.138-2.552-.115L13.37-4.448c.035-.743 1.947-1.151 4.063.133.54.286.61.66.676 1.08z" fill="#f4e3d7"/><g fill="#e3dedb" fill-opacity=".376"><path d="M20.8.801c-.242-.991-1.115-.88-1.065-.04.151 2.55-3.11 5.195-2.158 5.191 1.878-.009 3.725-3.096 3.223-5.15zM12.77.046c-.138.742.8.654 1.114.184.573-.855 1.6-1.573.861-1.744-1.197-.278-1.815.7-1.975 1.56zM12.692 1.788c.337 0 .455-.231.41-.449-.07-.35-.434-.477-.656-.214-.282.335.077.663.246.663z"/></g><path d="M10.633.254c2.011.337 1.328 3.337-.064 3.264-.643-.001-1.152-.063-1.616-.83-.27-.7-.157-1.21.045-1.678.566-.917 1.067-.79 1.635-.756z" fill="#f4e3d7" stroke="#000" stroke-width=".265"/><path d="M9.86 3.32C8.312 2.702 8.832.61 9.842.413c-.03.19-.764 2.203.72 2.969-.199.038-.529-.021-.702-.063z" fill="#cfbfb1"/><path d="M17.758-3.422c-.14.032-.286.016-.433-.007l.016-.497-.325-.211a.834.834 0 0 1 .406-.017l.323.201z"/><path d="M17.72-3.466c-.117.037-.23.016-.343-.008l.017-.458-.294-.189a.476.476 0 0 1 .318-.004l.288.192z" fill="#a40"/><path d="M17.052-3.422c-.14.032-.286.016-.433-.007l.016-.497-.325-.211a.834.834 0 0 1 .406-.017l.323.201z"/><path d="M17.015-3.466c-.118.037-.231.016-.344-.008l.017-.458-.294-.189a.476.476 0 0 1 .318-.004l.288.192z" fill="#a40"/><path d="M16.269-3.422c-.14.032-.286.016-.433-.007l.016-.497-.325-.211a.834.834 0 0 1 .406-.017l.323.201z"/><path d="M16.232-3.466c-.118.037-.231.016-.344-.008l.017-.458-.294-.189a.476.476 0 0 1 .318-.004l.288.192z" fill="#a40"/><path d="M11.21 1.165a.952.952 0 0 1-.008.417l-.547-.016-.322-.01a.709.709 0 0 1-.017-.392l.31.013z"/><path d="M11.161 1.201c.041.114.018.223-.008.332l-.505-.016-.291-.01a.395.395 0 0 1-.011-.305l.291.023z" fill="#a40"/><path d="M11.21 1.823a.952.952 0 0 1-.008.417l-.547-.016-.322-.01a.709.709 0 0 1-.017-.392l.31.013z"/><path d="M11.161 1.86c.041.113.018.222-.008.33l-.505-.015-.291-.01a.395.395 0 0 1-.011-.305l.291.023z" fill="#a40"/><path d="M11.21 2.482a.952.952 0 0 1-.008.417l-.547-.016-.322-.01a.709.709 0 0 1-.017-.392l.31.013z"/><path d="M11.161 2.518c.041.114.018.223-.008.332l-.505-.016-.291-.01a.395.395 0 0 1-.011-.305l.291.023z" fill="#a40"/><path d="M9.109 2.724c-.605-.935.122-2.003.243-2.038-.03.178-.414 2.276.508 2.634-.49-.145-.76-.618-.751-.597z" fill="#a58c82"/><ellipse transform="scale(-1 1)" cx="-9.555" cy="1.942" rx=".468" ry=".788"/><ellipse transform="scale(-1 1)" cx="-9.555" cy="1.942" rx=".358" ry=".602" fill="#241f1c"/><path d="M9.643-.93h-.272v2.683c-.188.05-.091.589.296.464v-.464z"/><path d="m9.623-.877-.227.003V1.82c-.152.017-.078.46.233.333l.003-.388z" fill="#241f1c"/><circle transform="scale(-1 1)" cx="-9.508" cy="-1.023" r=".214"/><circle transform="scale(-1 1)" cx="-9.508" cy="-1.023" r=".171" fill="#241f1c"/><path d="M14.37-3.946c.233-.74 1.632-.865 2.738-.554-.5-.261-.683-.318-.955-.409-.504-.217-1.316-.292-1.745-.215-.651.084-1.035.327-1.038.676z" fill="#782121"/><g fill="#f60"><path d="m17.705-3.933-.288-.192a.48.48 0 0 0-.318.004l.294.189zM16.999-3.933l-.288-.192a.48.48 0 0 0-.318.004l.294.189zM16.217-3.933l-.288-.192a.48.48 0 0 0-.318.004l.294.189zM10.637 1.224l-.292-.023c-.06.17.008.313.011.305l.292.01zM10.637 1.882l-.292-.022c-.06.17.008.313.011.305l.292.01zM10.637 2.541l-.292-.023c-.06.17.008.314.011.306l.292.01z"/></g><path d="m15.496-3.618-1.863-.915c-.035-.103.014-.203.177-.22z" fill="#f9f9f9" fill-opacity=".343"/><path d="M9.759 5.479c-2.187 5.292-.587 5.98-.13 8.011l-.563 3.038c1.17.63 4.103.635 5.523.23 1.35-2.628 2.455-.197 2.655.059l4.518-.137c.025-.827-.543-5.97-.626-6.166l-.553-3.765c-4.876 1.73-8.496-.484-10.824-1.27z" fill="#f4e3d7"/><path d="m14.287 13.681.515 1.899-5.539-.838c-.044-.74.09-1.43.199-1.693z"/><path d="M14.985 16.115c-.297-.534-.519-1.246-.708-1.643-.52-6.064-1.073-7.81-1.86-7.966l5.892.796c.455 2.893.19 4.295-.168 6.76-.339.964-.87 1.42-1.305 2.13-.9-.86-1.011-.834-1.851-.077z"/><path d="M9.27 19.213c-.349.155-.711.227-1.017.649-.178.489-.179.96-.085 1.42.346.247 1.527.324 3.2.048.839-.25 1.677-.569 2.516-1.297.134-.18.273-.447.052-1.042.094-.554.285-1.523.653-2.233l-5.523-.23c.288 1.314.284 2.743.204 2.685zM21.636 18.758c.906.014 1.872.164 2.113.395.23.086.384 1.103.085 1.42-.924.292-1.95.409-3.149.227-.614-.087-1.864-.365-3.035-.758-.12-.094-.357-.539-.118-.938.069-.748-.185-1.524-.288-2.287l4.518-.137c-.189 1.121-.344 2.016-.126 2.078z" fill="#f4e3d7"/><path d="m8.795 16.006-.088.108.045 1.393.19.137 5.577.266.201-.104.092-1.354-.059-.091zM9.648 5.196c-.492.27-.968.717-1.433 1.289-.663 1.124-.459 2.86-.485 4.253 1.224-.372 2.456-.37 3.685-.514l-.21-1.914c.499.438 1.002.914 1.504 1.38l.068-1.542c-.638-1.158-1.743-2.11-3.129-2.952z"/><path d="M8.571 6.362c1.174.352 2.631 1.688 3.999 2.958l.078-1.147c-.673-.965-1.8-2.004-2.962-2.795-.438.24-.701.476-1.115.985z" fill="#f4e3d7"/><path d="M12.585 6.784c-1.135-.056-1.292.29-1.391.602-.098.811-.004 1.91.23 2.623l2.263.074c.1-.776.25-1.857.03-2.643-.083-.336-.516-.608-1.132-.656z"/><path d="M12.571 7.01c-.98-.05-1.115.249-1.2.518-.084.7-.004 1.648.198 2.263l1.953.064c.087-.67.215-1.602.026-2.28-.072-.29-.446-.525-.977-.566z" fill="#f4e3d7"/><path d="M11.685 9.795c-.002-.141-.046-.222.113-.442.35-.102 1.202-.039 1.64.081.057.035.03.336.002.418z"/><g><path d="m11.947 8.433.563-.741.513.784-.538-.021z"/><path d="m12.095 8.37.413-.57.375.6-.394-.015z" fill="#782121"/><path d="M11.314 7.925c-.004.128.026.267.03.491.261-.415.725-1.398 1.42-1.328-.079-.03-.013-.052-.267-.082-1.07-.12-1.19.568-1.183.919z" fill="#cfbfb1"/><path d="M11.314 7.925c.216-.337.446-.993 1.183-.919-.06-.023-.306-.025-.417-.02-.846.042-.762.7-.766.939z" fill="#a58c82"/><path d="m11.536 8.095.263 1.258-.113.442-.117-.004c-.167-.472-.196-.957-.224-1.375z" fill="#cfbfb1"/><path d="M11.706 9.366c-.134-.479-.297-.988-.28-1.652l-.112.21c-.009.28.014 1.139.255 1.867z" fill="#a58c82"/><path d="M8.906 6.274c.86.406 1.55.955 2.256 1.49l-.008.273c-.994-.854-1.848-1.441-2.583-1.674z" fill="#cfbfb1"/><path d="M8.571 6.362c.296-.35.58-.703 1.115-.984l.132.091c-.295.168-.598.434-.912.806z" fill="#a58c82"/><path d="m13.453 6.201-.128 1.17 2.272.342.214-1.082z"/><path d="m13.571 6.379-.14.92 2.087.322.172-.885z" fill="#cfbfb1"/><path d="m15.513 6.807-1.954-.347.013-.081 2.118.357z" fill="#a58c82"/></g><g><ellipse cx="20.001" cy="6.266" rx=".075" ry=".106"/><ellipse cx="19.634" cy="6.429" rx=".075" ry=".106"/><ellipse transform="scale(1 -1) rotate(6.688)" cx="9.968" cy="-6.324" rx=".075" ry=".106"/><ellipse transform="scale(1 -1) rotate(6.688)" cx="10.335" cy="-6.487" rx=".075" ry=".106"/><ellipse transform="scale(1 -1) rotate(6.688)" cx="10.711" cy="-6.688" rx=".075" ry=".106"/><ellipse transform="scale(1 -1) rotate(6.688)" cx="11.078" cy="-6.851" rx=".075" ry=".106"/><path d="M7.73 10.737c1.079-1.576 2.701-1.276 3.73-.292-.011.599-.056 1.21-.162 1.86-.038.737-2.062.334-2.56.83-.728-1.267-.74-.964-1.008-2.398z"/></g><g><path d="m11.072 8.266.137 1.847c-1.057.124-2.288.11-3.27.368-.026-1.337-.172-2.89.398-3.856.25-.032 1.828.609 2.735 1.641zM7.933 10.808c1.057-.124 2.288-.11 3.27-.368.013.652-.074.917-.163 1.784-.073.262-1.872.083-2.333.303-.756-1.061-.564-.825-.774-1.72z" fill="#f4e3d7"/><path d="M8.338 6.625c-.375.309-.757 1.688-.24 5.111l.817-.033c-.433-1.65-.652-3.34-.577-5.078z" fill="#a58c82"/><path d="M8.431 9.158 7.34 9.42c.056.675.116 1.349.258 1.99l1.167-.298-.24-1.41zm.093.545.193 1.128 2.743-.386-.14-1.118z"/><path d="m8.357 9.321.265 1.713-.95.27c-.156-.598-.208-1.191-.252-1.784z" fill="#cfbfb1"/><path d="m8.357 9.321-.17.17.252 1.582.183-.039z" fill="#f4e3d7"/><path d="m8.187 9.49-.76.129-.007-.099.938-.199z" fill="#a58c82"/><path d="m8.353 9.79.184 1.066 2.826-.488-.133-.932z"/><path d="m8.487 9.876.16.84 2.607-.356-.098-.801zM21.164 10.2c-.102-.372-.353-2.578-.278-3.21.56.109 3.684.663 4.285.854-.036.283.012 1.717-.191 2.255-1.242.407-2.486.035-3.816.101z" fill="#f4e3d7"/><path d="M19.591 6.785c.43 1.28 1.27 2.002 1.545 3.728l.62-.268c.33-1.349.015-1.91-.473-3.362-.553-.199-.92-.13-1.692-.098z"/><path d="M19.739 6.872c.513 1.112 1.486 1.544 1.44 3.41l.462-.163c.306-1.231-.11-2.093-.394-3.149-.47-.169-.853-.124-1.508-.098z" fill="#f4e3d7"/><path d="M20.027 7.065c-.062.342 1.215 1.024 1.152 3.217-.018-1.31-1.128-2.705-1.44-3.41z" fill="#cfbfb1"/><path d="M19.739 6.872c.458-.01.944-.117 1.508.098l.039.158c-.321-.11-.774-.074-1.26-.063z" fill="#a58c82"/><path d="M14.275 11.494c.052 1.346.302 3.46.776 4.269.778-.739 1.284-.377 1.773.057.905-1.086 1.154-3.193 1.058-4.51z" fill="#f4e3d7"/><path d="m16.816 11.364-1.236.064c.1.299.12 1.014.108 1.322.069.009.103.027.17.031.03.613-.092 2.016-.192 2.592l.694.097c.15-.641.271-2.105.315-2.746.054-.01.108-.02.161-.032.03-.29.011-1.027-.02-1.328z"/><path d="m16.723 11.369-1.043.053c.05.246.122.938.079 1.218.09-.005.182-.002.275.002.017.703-.125 2.137-.226 2.75l.427.017c.126-.639.294-2.1.282-2.773a.717.717 0 0 0 .228-.077c.053-.235-.005-.935-.022-1.19z" fill="gray"/></g><g><ellipse cx="15.15" cy="15.233" rx=".071" ry=".078"/><ellipse cx="16.805" cy="15.359" rx=".071" ry=".078"/><ellipse cx="17.459" cy="12.973" rx=".071" ry=".078"/><ellipse cx="14.86" cy="13.104" rx=".071" ry=".078"/></g><g><path d="m13.827 7.67.259 3.339 3.837-.035.294-.437a127.26 127.26 0 0 0-.038-2.573s-.229-.116-.228-.184z" fill="#f4e3d7"/><path d="m14.654 10.517-.568.492-.259-3.338.566.352z" fill="#a58c82"/><path d="m14.086 11.009.568-.492 3.563.02c-.062.148-.294.437-.294.437zM14.393 8.023l3.786-.059-.228-.184-4.124-.11z" fill="#cfbfb1"/></g><path d="m18.187 8.522.832.023.042 1.651-.844.019z"/><path d="m18.193 8.59.718.022.088 1.366-.088.126h-.674z" fill="#333"/><path d="m19 9.979-.767-.015.004.14h.675z" fill="#1a1a1a"/><path d="M18.936 8.005h.089v.877c.062.017.03.193-.097.152v-.152z"/><g><path d="m18.943 8.022.074.001v.881c.05.006.026.15-.076.11v-.128z" fill="#241f1c"/><circle cx="18.981" cy="7.974" r=".07"/><circle cx="18.981" cy="7.974" r=".056" fill="#241f1c"/><path d="m18.327 8.75.007.59.486-.008-.006-.577z"/><path d="m18.39 8.825.006.457.363-.004-.004-.455z" fill="#a40"/></g><g><rect x="18.339" y="9.582" width=".514" height=".095" ry=".047"/><rect x="18.335" y="9.738" width=".514" height=".095" ry=".047"/><ellipse cx="15.185" cy="8.703" rx=".428" ry=".416"/></g><ellipse cx="15.185" cy="8.703" rx=".378" ry=".367" fill="#782121"/><g><ellipse cx="15.188" cy="8.716" rx=".196" ry=".198"/><path d="M15.138 8.34a.283.283 0 0 1 .009.182l.107.007a.341.341 0 0 1 .006-.185c-.079-.014-.099-.007-.122-.005zM15.493 8.914a.254.254 0 0 1-.124-.122l-.072.088c.057.03.08.069.108.12.119.04.083-.05.088-.086zM15.013 8.804a.299.299 0 0 1-.104.15c.019.038-.015.128.093.07.005-.07.061-.132.093-.134-.055-.063-.062-.072-.082-.086z"/></g><g><ellipse cx="15.188" cy="8.716" rx=".097" ry=".098" fill="#782121"/><ellipse cx="17.504" cy="9.873" rx=".425" ry=".463"/><ellipse cx="17.504" cy="9.873" rx=".362" ry=".395" fill="#782121"/><ellipse cx="17.504" cy="9.873" rx=".302" ry=".329" fill="#501616"/><ellipse cx="17.504" cy="9.873" rx=".246" ry=".268" fill="#782121"/></g><g><ellipse cx="17.504" cy="9.873" rx=".196" ry=".214"/><ellipse transform="matrix(.99999 -.00433 -.01016 .99995 0 0)" cx="16.543" cy="8.63" rx=".095" ry=".09"/><ellipse transform="matrix(.99999 -.00433 -.01016 .99995 0 0)" cx="16.956" cy="8.632" rx=".095" ry=".09"/><ellipse transform="matrix(.99999 -.00433 -.01016 .99995 0 0)" cx="17.369" cy="8.634" rx=".095" ry=".09"/><ellipse transform="matrix(.99999 -.00433 -.01016 .99995 0 0)" cx="17.781" cy="8.636" rx=".095" ry=".09"/></g><path d="m14.719 9.239.118 1.104 2.067-.049-.044-1.019z" fill="gray"/><path d="m14.917 9.399.07.764 1.749-.025.01-.745z"/><path d="m15.241 10.159.104-.762h.297l-.172.759zM16.206 10.145l.104-.762h.297l-.172.759z" fill="#6b6463"/><g><ellipse cx="17.501" cy="11.826" rx=".071" ry=".078"/><ellipse cx="14.845" cy="11.954" rx=".071" ry=".078"/><ellipse cx="19.726" cy="8.414" rx=".425" ry=".463"/></g><g><ellipse cx="19.726" cy="8.414" rx=".362" ry=".395" fill="#782121"/><ellipse cx="19.726" cy="8.414" rx=".302" ry=".329" fill="#501616"/><ellipse cx="19.726" cy="8.414" rx=".246" ry=".268" fill="#782121"/><ellipse cx="19.726" cy="8.414" rx=".196" ry=".214"/><path d="M19.53 8.388c.007-.113.027-.234.196-.242.48-.803.577-.884.848-1.611.078-.078.263-.09.34.121-.248.732-.35.923-.943 1.732-.022.196-.123.228-.22.24-.167-.005-.224-.16-.221-.24z"/><path d="M19.562 8.378c.006-.1.014-.17.164-.177.603-.624.61-.98.85-1.628.07-.068.234-.08.303.108-.22.65-.43 1.014-.957 1.733-.02.175-.077.167-.164.177-.148-.005-.199-.141-.196-.213z" fill="#483737"/><path d="M19.758 8.591c-.156-.006-.198-.127-.196-.213.002-.13.035-.164.164-.177.81-1.115.792-1.6.85-1.628 0-.018.139-.084.209-.019-.208.757-1.027 1.556-1.027 2.037z" fill="#241c1c"/></g><path d="m18.21 13.588-.885 1.907 4.4-.731c.044-.74-.09-1.431-.2-1.693z"/><g><path d="m7.178 2.22-.032 3.457 1.218.009-.113-3.39z"/><path d="m7.15 5.279.966.019L8.1 2.516 7.175 2.5z" fill="#241f1c"/><path d="m6.997 3.006-.013 1.585h.69l.015-1.56z"/><path d="m7.069 3.11.007 1.28.483.007.032-1.278z" fill="#241f1c"/></g><path d="m7.516 1.057-.337-.005-.044 2.683c-.233.047-.122.586.358.47l.008-.465z"/><g><path d="m7.44 1.09-.262.003v2.693c-.175.017-.09.46.269.333l.003-.388z" fill="#241f1c"/><circle transform="scale(-1 1)" cx="-7.327" cy=".908" r=".266"/><circle transform="scale(-1 1)" cx="-7.324" cy=".901" r=".217" fill="#241f1c"/></g><g><ellipse transform="rotate(3.166)" cx="8.151" cy="4.616" rx=".065" ry=".068"/><ellipse transform="rotate(3.166)" cx="8.45" cy="4.612" rx=".065" ry=".068"/><ellipse cx="7.912" cy="2.7" rx=".065" ry=".068"/><path d="m7.68 3.922.428.015-.003-.457-.42.003z"/></g><path d="m7.684 3.608-.002.235h.425l-.001-.212z" fill="#a40"/><path d="m22.535 3.934.237-.637c1.275.674.85 2.198-.49 2.524l.017-.56c.393-.09.741-.295.755-.684-.079-.529-.323-.506-.519-.643z" fill="#025"/><g><path d="M7.681 11.753c.13.582.236 1.298.616 1.672l3-.118c.157-.532.193-1.115.209-1.707z"/><path d="M7.913 11.934c.014.318.129.865.454 1.361l2.67-.065c.208-.445.283-.941.257-1.474z" fill="#f4e3d7"/><path d="m10.757 13.357-2.378.033c.008.731-.248 1.512.213 2.161 0 0 .164.162.399.086.249-.08.354-.07.69.065.275.11.818-.181.961-.26.122-.095.211-.183.285-.269 1.058.046.858-1.38.35-1.648-.229-.119-.358-.124-.52-.168z"/><path d="m10.665 13.501-2.088.029c.007.642-.218 1.327.187 1.897 0 0 .144.142.35.075.22-.07.311-.06.605.058.243.097.72-.16.845-.228.107-.084.186-.161.25-.237v.001c.93.04.754-1.213.307-1.447-.2-.105-.313-.11-.456-.148z" fill="#f4e3d7"/></g><g><path d="m9.334 15.459-.03-.214.415.316zM10.814 15.096l-.155-.589.285.586a.821.821 0 0 1-.13.003zM9.003 13.308l-.065-.88.697.003.12.859z"/></g><path d="m9.057 13.243-.054-.733.58.003.1.715z" fill="#782121"/><path d="m7.82 8.754 1.49-.078c-.065-.414-.113-.826.02-1.223l-1.371-.057c-.097.378-.133.923-.14 1.358z"/><g><path d="m7.908 8.6 1.28-.067a2.274 2.274 0 0 1 .024-.984L8.01 7.547c-.087.488-.087.751-.102 1.054z" fill="#373748"/><path d="M8.934 16.315c-.077.37-.044.741.04 1.114l5.558.262c.141-.349.115-.728.089-1.106z" fill="#f4e3d7"/><path d="m26.736 8.087-.154 2.19c.584.057 1.188.362 1.74-.006 0 0 .142-.137.1-.36-.046-.236-.03-.332.104-.628.11-.244-.082-.77-.135-.908a1.75 1.75 0 0 0-.193-.286c.118-.97-1.036-.91-1.288-.465-.112.199-.126.317-.174.463z"/><path d="m26.845 8.184-.136 1.924c.514.05 1.043.317 1.53-.006 0 0 .123-.12.086-.316-.04-.207-.025-.291.091-.552.097-.214-.072-.676-.117-.797a1.536 1.536 0 0 0-.17-.25c.103-.853-.91-.8-1.131-.41-.099.175-.111.279-.153.407z" fill="#f4e3d7"/><path d="M25.025 10.584c.549-.05 1.217-.066 1.602-.344l.223-2.503c-.47-.183-1.002-.271-1.544-.343z"/><path d="M25.217 10.41c.293.02.808-.02 1.3-.241l.234-2.223c-.386-.217-.833-.329-1.325-.36z" fill="#f4e3d7"/><path d="m28.096 7.563 1.313.037.386 1.312-.266.214.324.168-.528 1.306-1.906-.217c.355-.43.452-1.88.677-2.82z"/><path d="M29.688 9.346h-1.809l-.137.764c.428.133.963.254 1.48.378zM29.269 7.732l.253 1.095-1.486.454-.223-1.314z" fill="#f4e3d7"/></g><path d="M27.845 8.937c.132.22.176.327.618.392.358-.142.37-.446.38-.751-.117-.334-.262-.538-.405-.752l-.4-.023z"/><g><path d="M27.471 8.26c.315.325.54.934.945.974.156-.15.292-.315.302-.575-.11-.324-.408-.914-.864-1.09z" fill="#f4e3d7"/><path d="m16.836 16.192.048.392 1.568-.19c-.286-.306-.336-.663-.315-1.034l-.812.135c-.183.23-.332.464-.489.697z" fill="#a58c82"/><path d="m16.548 16.493-.076.117.2 1.38.205.114 5.571-.355.188-.125-.059-1.357-.068-.084z"/><path d="M16.72 16.784c-.036.376.039.742.163 1.103l5.553-.357c.102-.363.033-.736-.035-1.11z" fill="#f4e3d7"/><path d="m17.47 18.07.062 1.033c-.25.43-.033.772.118.939.879.292 1.85.556 3.035.757 1.22.166 1.907.063 2.547-.065-5.675-1.142-5.279-1.64-5.762-2.664z" fill="#a58c82"/><path d="M17.994 20.382c-.15-.493-.087-.823-.04-1.286.14-.34.78-.204.795.061.068.571.027.95-.13 1.407z"/><path d="m9.246 17.643-.018 1.589.636-.062c-.218-.543-.09-1.006-.03-1.484z" fill="#a58c82"/><path d="M9.27 19.213c-.06.073 3.499-.669 3.576 1.536-.214.139-.421.374-.58.272-.1-2.3-3.059-1.504-3.533-1.577.273-.176.137-.335.537-.231zM13.659 20.218c.15-.493.083-.713.036-1.176-.144-.34-.427-.126-.494.145-.068.572-.023.84.134 1.297z"/><path d="M8.317 7.73c-.002 0-.003.004-.003.007 0 .004.003.007.004.01a.16.16 0 0 0-.11.059.175.175 0 0 0-.084-.036c-.043-.008-.154.25-.157.296-.003.035.07.028.078.002.04-.116.083-.222.092-.219 0 0 .052.03.052.04 0 .023-.02-.01-.028-.01-.002 0-.004.006-.006.01a.432.432 0 0 0-.034.189.38.38 0 0 0 .068.199.69.69 0 0 0 .07.073l.001.002s.015-.007.022-.007a.058.058 0 0 0-.017.011c-.016.015-.016.04-.014.051.005.025.03.04.046.025-.006-.04.01-.06.028-.06.017 0 .034.02.027.06.016.015.042 0 .046-.025.003-.01.003-.036-.013-.051l.004-.004.002-.002a.606.606 0 0 0 .07-.073.38.38 0 0 0 .068-.2.432.432 0 0 0-.034-.187c-.002-.005-.004-.011-.007-.011-.007 0-.027.033-.027.01 0-.01.051-.04.051-.04.01-.003.052.103.092.22.01.025.081.032.079-.003-.004-.047-.114-.304-.158-.296a.175.175 0 0 0-.083.036.16.16 0 0 0-.11-.06c0-.002.004-.005.004-.01 0-.002-.002-.005-.004-.006H8.33s-.002 0-.004.006l-.001.01c0-.007-.001-.007-.002-.01-.002-.006-.004-.006-.004-.006h-.002zm-.138.279.104.106c-.007.043-.03.075-.058.078-.027.002-.053-.024-.064-.065a.153.153 0 0 1 .018-.12zm.292 0c.02.029.028.077.017.119-.01.041-.036.067-.064.065-.028-.003-.05-.035-.058-.078z" opacity=".999" fill="#9b291e"/><path d="M21.636 18.758c-.752.195-1.695.423-1.889 1.864l.6.122c.191-.805.377-1.54 2.314-1.913-.273-.175-.625-.177-1.025-.073z"/></g><g fill="#a58c82"><path d="M16.72 16.784c-.025.313.008.666.163 1.103l.976-.063c-.297-.617-.29-.924-.157-1.103zM7.913 11.934c.03.267-.019.614.454 1.361l.421-.01c-.274-.461-.312-.922-.275-1.383zM8.577 13.53c.01.613-.23 1.315.187 1.898.118.153.352.076.57.03l-.03-.214c-.412-.274-.54-1.044-.727-1.714zM8.733 19.444a1.312 1.312 0 0 0-.48.418 2.53 2.53 0 0 0-.085 1.42c.206.16.63.193 1.028.218-.48-.628-.446-1.347-.463-2.056zM8.934 16.315c-.082.374-.107.746.04 1.114l.86.04c-.372-.331-.5-.719-.503-1.135z"/></g></g></svg>